<?xml version="1.0" encoding="utf-8"?>
<!-- Generator: Adobe Illustrator 25.3.1, SVG Export Plug-In . SVG Version: 6.00 Build 0)  -->
<svg version="1.1" id="Layer_1" xmlns="http://www.w3.org/2000/svg" xmlns:xlink="http://www.w3.org/1999/xlink" x="0px" y="0px"
	 viewBox="0 0 210 84" style="enable-background:new 0 0 210 84;" xml:space="preserve">
<style type="text/css">
	.st0{fill:#000;}
</style>
<g id="Group_2" transform="translate(-0.1 -0.4)">
	<g id="Group_1" transform="translate(27.804 0.4)">
		<path id="Path_1" class="st0" d="M68,33.7c-1.5-1.7-3.8-2.7-6.1-2.5l0,0c-5.5,0-10.5,4.4-11.5,10.1v0.1c-0.6,2.5,0,5.1,1.5,7.2
			c1.7,2,4.2,3,6.8,2.9l0,0c3.2,0,6.4-1.3,8.7-3.5l-2.1-2.2c-1.6,1.4-3.7,2.2-5.9,2.3l0,0c-3.2,0-5.1-2-5-5.1v-0.1h14.8v-0.1
			c0.1-0.4,0.2-0.7,0.3-1.1C70.1,38.4,69.6,35.6,68,33.7z M65.5,40H54.9l0.1-0.2c1-3.2,3.5-5.3,6.3-5.3c2.9,0,4.6,2,4.3,5.3L65.5,40
			z"/>
		<path id="Path_2" class="st0" d="M84.4,31.2c-3.2,0.1-6,1.9-7.5,4.6l-0.3,0.4l0.8-4.6h-4.3L69.6,51h4.3l1.3-7.3
			c0.9-4.9,4.1-7.9,8.4-7.9h0.1l0.8-4.5L84.4,31.2z"/>
		<path id="Path_3" class="st0" d="M102,33c-1.2-1.3-2.9-2-4.7-1.8l0,0c-2.7,0-5.1,1.3-6.8,3.4l-0.3,0.4l0.6-3.2h-4.3L82.9,51h4.3
			l2-11c0.6-3,2.7-5,5.6-5l0,0c1.1-0.1,2.2,0.3,2.9,1.1c0.8,1.1,1,2.5,0.6,3.8l-1.9,11h4.3l2.3-12.4C103.4,36.3,103.1,34.4,102,33z"
			/>
		<path id="Path_4" class="st0" d="M106.8,31.6L103.3,51h4.3l3.5-19.4H106.8z"/>
		<path id="Path_5" class="st0" d="M110.3,24L110.3,24c-1.4,0.1-2.7,1.1-3,2.5c-0.1,0.6,0,1.2,0.4,1.7c0.4,0.5,1,0.8,1.6,0.8l0,0
			c1.4-0.1,2.7-1.1,3-2.5c0.1-0.6,0-1.2-0.4-1.7C111.6,24.3,111,24,110.3,24z"/>
		<path id="Path_6" class="st0" d="M46.2,31.5l0.8-4.2l-4.5,1.1l-3.2,17.4c-0.3,1.9-0.1,3.3,0.6,4.2c0.8,0.9,2.1,1.4,4,1.4l0,0
			c1.4,0,2.9-0.3,4.2-1l0.6-3.4c-0.9,0.4-1.8,0.6-2.8,0.6l0,0c-0.7,0.1-1.3-0.2-1.8-0.6c-0.4-0.6-0.5-1.3-0.3-2l1.8-9.8H51l0.6-3.6
			L46.2,31.5z"/>
		<path id="Path_7" class="st0" d="M131.6,51.6l11.5-20h-4.5l-8,14.8l-3.6-15h-8.5l0.8-4.2l-4.5,1L111.6,46
			c-0.3,1.9-0.1,3.3,0.6,4.2c0.8,1,2.1,1.4,4,1.4c1.5,0,2.9-0.3,4.2-1l0.6-3.4c-0.9,0.4-1.8,0.6-2.8,0.6l0,0
			c-0.7,0.1-1.3-0.2-1.8-0.6c-0.4-0.6-0.5-1.3-0.3-2l1.8-10.1h5.8v0.1l3.9,16v0.1l-5.1,8.6h4.2L131.6,51.6L131.6,51.6z"/>
	</g>
	<path id="Path_8" class="st0" d="M61.1,25.8h-4.2l-17.7,25l3.8,2.9L59,47.5c-2.6-1.5-5.8-1.8-8.7-0.9L47,47.8l10.9-15.6l3.3,19.3
		h4.9L61.1,25.8z"/>
</g>
</svg>
