<?xml version="1.0" encoding="utf-8"?>
<!-- Generator: Adobe Illustrator 25.3.1, SVG Export Plug-In . SVG Version: 6.00 Build 0)  -->
<svg version="1.1" id="Layer_1" xmlns="http://www.w3.org/2000/svg" xmlns:xlink="http://www.w3.org/1999/xlink" x="0px" y="0px"
	 viewBox="0 0 210 84" style="enable-background:new 0 0 210 84;" xml:space="preserve">
<style type="text/css">
	.st0{fill:#000;}
</style>
<g id="BLACH_LOGO_K_HORIZ" transform="translate(-39.3 -22.5)">
	<g id="Group_3424" transform="translate(75.757 25.006)">
		<path id="Path_1145" class="st0" d="M35.8,42.7v-15h13.7c1.3,0,2.9,0,3.9,1c0.8,0.7,1.2,1.8,1.1,2.9c0,1.7-0.4,2.4-1,2.9
			c-0.5,0.3-1,0.6-1.5,0.7c0.7,0,1.4,0.3,2,0.7c0.7,0.5,1.1,1.2,1.1,3c0.1,1-0.3,2-0.9,2.7c-0.2,0.2-0.4,0.5-0.7,0.6
			c-0.9,0.6-2,0.7-4.2,0.6L35.8,42.7L35.8,42.7z M40.4,39.1h8.9c0.6-0.1,1-0.2,1.3-0.8c0-0.1,0-0.1,0-0.4c0-0.3-0.1-0.6-0.3-0.8
			c-0.4-0.5-1.1-0.7-1.8-0.6h-8.2L40.4,39.1z M40.4,33.6h7.7c0.7,0,1.3,0,1.7-0.5c0.2-0.2,0.3-0.5,0.3-0.8c0-0.3-0.1-0.3-0.3-0.6
			c-0.4-0.6-0.9-0.6-1.5-0.6h-7.8V33.6z"/>
		<path id="Path_1146" class="st0" d="M61.8,27.7v11.2h10.4v3.9h-15V27.7H61.8z"/>
		<path id="Path_1147" class="st0" d="M87.8,27.6l8.3,15.1h-5.2l-1.4-2.6h-9.4l-1.3,2.6h-5.2l8.1-15H87.8z M81.9,36.8h6l-3.1-5.6
			L81.9,36.8z"/>
		<path id="Path_1148" class="st0" d="M111.7,33.2c0.1-0.4,0-0.9-0.3-1.3c-0.3-0.4-0.7-0.6-1.2-0.5c-0.8,0-2.6-0.1-3.5-0.1
			c-0.9,0-1.8,0-2.7,0.1h-0.6c-0.8,0.1-1.5,0.6-1.7,1.4c-0.1,0.8-0.2,1.6-0.2,2.3v1.1c-0.1,0.8,0.1,1.6,0.6,2.2
			c0.5,0.4,1.1,0.6,1.8,0.7h6.2c0.5,0,1-0.2,1.4-0.6c0.3-0.5,0.4-1,0.4-1.6h4.6c0,0.4,0,1,0,1.5c0.1,1.2-0.3,2.4-1.2,3.3
			c-0.7,0.6-1.5,1-2.4,1.1c-1.6,0.1-4.4,0.2-5.9,0.2c-1.7,0-3.4,0-5.1-0.1c-1.3-0.1-2.5-0.5-3.6-1.3c-0.8-0.8-1.2-1.9-1.2-3
			c-0.1-1-0.2-2-0.2-3.1s0-2.7,0.1-3.8c0-0.9,0.4-1.7,0.9-2.4c0.9-0.9,2.1-1.5,3.3-1.6c1.7-0.1,3.4-0.2,5-0.2c1.7,0,4.3,0.1,6,0.2
			c1,0.1,2.1,0.4,2.9,1.1c1.1,1,1.3,3.2,1.3,4.5L111.7,33.2z"/>
		<path id="Path_1149" class="st0" d="M123.2,27.6V33h10v-5.4h4.5v15.1h-4.5v-5.8h-10v5.9h-4.5V27.6H123.2z"/>
	</g>
	<g id="Group_3425" transform="translate(76 43.113)">
		<path id="Path_1150" class="st0" d="M41.7,29.7c0-0.2,0-0.3-0.1-0.5C41.4,29.1,41.2,29,41,29c-0.4,0-0.7,0-1.1,0
			c-0.4,0-0.8,0-1.1,0h-0.3c-0.3,0-0.6,0.2-0.7,0.5c-0.1,0.3-0.1,0.6-0.1,1V31c-0.1,0.3,0,0.6,0.2,0.9c0.2,0.2,0.5,0.3,0.8,0.3H41
			c0.2,0,0.5-0.1,0.6-0.2c0.1-0.2,0.2-0.4,0.2-0.6h1.9v0.5c0.1,0.5-0.1,1-0.5,1.3c-0.3,0.2-0.7,0.4-1.1,0.4c-0.6,0-1.3,0.1-1.9,0.1
			c-0.7,0-1.4,0-2.1,0c-0.5,0-1.1-0.2-1.5-0.5c-0.3-0.3-0.5-0.8-0.5-1.3c0-0.4-0.1-0.8-0.1-1.3c0-0.4,0-0.9,0-1.3
			c0-0.4,0.1-0.7,0.4-1c0.4-0.4,0.8-0.6,1.4-0.6c0.7,0,1.4-0.1,2.1-0.1c0.7,0,1.4,0,2.1,0c0.4,0,0.9,0.2,1.2,0.4
			c0.4,0.5,0.5,1.1,0.5,1.7L41.7,29.7z"/>
		<path id="Path_1151" class="st0" d="M44.8,29.3c0-0.1,0-0.2,0-0.3c0.1-0.5,0.3-0.9,0.7-1.1c0.3-0.2,0.6-0.3,1-0.3
			c0.7,0,1.5-0.1,2.2-0.1c0.9,0,1.7,0,2.6,0.1c0.1,0,0.2,0,0.3,0c0.5,0.1,1,0.4,1.3,0.8c0.2,0.4,0.3,0.8,0.3,1.2c0,0.4,0,0.8,0,1.3
			c0,0.3,0,0.6,0,0.8c0,0.4-0.1,0.8-0.4,1.2c-0.5,0.5-1.2,0.7-1.9,0.7c-0.6,0-1.2,0-1.8,0c-0.7,0-1.4,0-2.1,0
			c-0.5,0-1.1-0.1-1.5-0.4c-0.7-0.5-0.7-1.5-0.7-2.2L44.8,29.3z M50.2,32.2c0.4,0,0.8-0.1,0.9-0.4c0.1-0.2,0.2-0.3,0.2-0.5V30
			c0-0.1,0-0.2,0-0.4c-0.2-0.5-0.5-0.5-1-0.6h-2.6c-0.3,0-0.5,0.1-0.8,0.2c-0.1,0.1-0.1,0.1-0.2,0.2c-0.1,0.1-0.1,0.3-0.1,0.3
			c0,0.3-0.1,0.7,0,1c0,0.4,0,0.8,0.2,1.1c0.2,0.2,0.4,0.3,1,0.3L50.2,32.2z"/>
		<path id="Path_1152" class="st0" d="M57.5,27.6c0.6,0.8,1.3,1.6,2,2.4c0.6,0.7,1.2,1.5,1.7,2.2l0-2.7v-1.9h1.7v6h-3
			c-0.7-0.8-1.4-1.7-2.1-2.6c-0.5-0.6-1-1.3-1.5-2v4.6h-1.8v-6.1H57.5z"/>
		<path id="Path_1153" class="st0" d="M66.1,31.6c0,0.1,0,0.2,0,0.4c0.1,0.2,0.2,0.3,0.6,0.3c0.4,0,0.8,0,1.1,0h1.3
			c0.2,0,0.4,0,0.5,0c0.2-0.1,0.3-0.2,0.4-0.4c0-0.1,0-0.2-0.1-0.3c-0.2-0.2-0.3-0.2-0.8-0.2c-0.9,0-1.8,0-2.7-0.1
			c-0.3,0-0.6,0-0.8,0c-0.1,0-0.2,0-0.3,0c-0.3,0-0.6-0.2-0.8-0.4c-0.3-0.3-0.4-0.7-0.4-1.2c0-0.4,0.1-0.7,0.2-1.1
			c0-0.1,0.1-0.3,0.2-0.4c0.4-0.3,0.8-0.5,1.3-0.5c0.6,0,1.3,0,2,0c0.7,0,1.5,0,2.2,0.1l0.3,0c0.3,0,0.6,0.2,0.9,0.4
			c0.3,0.4,0.5,0.9,0.4,1.5h-1.8c-0.1-0.4-0.2-0.5-0.7-0.6c-0.4,0-0.9,0-1.3,0c-0.4,0-0.7,0-1.1,0c-0.2,0-0.5,0-0.6,0.2
			c-0.2,0.1-0.2,0.4,0,0.6c0,0,0,0,0,0c0.2,0.2,0.4,0.2,0.6,0.2l3.6,0.1c0.3,0,0.6,0.1,0.9,0.3c0.3,0.2,0.6,0.6,0.6,1.5
			c0.1,0.4-0.1,0.9-0.3,1.3c-0.1,0.1-0.2,0.2-0.2,0.2c-0.3,0.2-0.7,0.3-1,0.3c-0.7,0-1.5,0.1-2.2,0.1c-0.8,0-1.6,0-2.4-0.1
			c-0.4,0-0.8-0.2-1.2-0.4c-0.3-0.5-0.4-1-0.3-1.5L66.1,31.6z"/>
		<path id="Path_1154" class="st0" d="M80.1,27.6v1.4h-2.7v4.6h-1.9V29h-2.7v-1.4H80.1z"/>
		<path id="Path_1155" class="st0" d="M86.6,27.6c0.6-0.1,1.2,0,1.7,0.3c0.1,0.1,0.2,0.2,0.3,0.3c0.2,0.4,0.2,0.8,0.2,1.2
			c0,0.3,0,0.7-0.1,1c0,0.1-0.1,0.2-0.2,0.3c-0.4,0.4-0.8,0.6-1.3,0.6c0.5-0.1,0.9,0.1,1.3,0.4c0.2,0.3,0.2,0.6,0.2,0.8v1.1h-1.9
			v-0.8c0-0.2,0-0.3-0.1-0.5c-0.1-0.2-0.4-0.2-0.6-0.2H83v1.5h-1.9v-6H86.6z M83,30.6h3c0.2,0,0.5,0,0.7-0.1
			c0.3-0.2,0.3-0.6,0.3-0.6c0-0.2,0-0.4-0.2-0.6c-0.2-0.2-0.4-0.2-0.7-0.2H83L83,30.6z"/>
		<path id="Path_1156" class="st0" d="M91.7,27.6v3.5c0,0.3,0,0.5,0.2,0.8c0.2,0.3,0.6,0.3,1.3,0.3h1.8c0.2,0,0.5-0.1,0.7-0.2
			c0.2-0.2,0.3-0.5,0.2-0.8v-3.6h1.9v4c0,0.1,0,0.3,0,0.4c-0.1,0.5-0.3,1-0.8,1.3c-0.4,0.2-0.9,0.4-1.4,0.4c-0.6,0-1.1,0-1.7,0
			c-0.6,0-1.3,0-2,0c-0.1,0-0.2,0-0.4,0c-0.5,0-1-0.3-1.3-0.8c-0.2-0.3-0.3-0.7-0.3-1.1v-4.2H91.7z"/>
		<path id="Path_1157" class="st0" d="M105,29.7c0-0.2,0-0.3-0.1-0.5c-0.2-0.1-0.4-0.2-0.6-0.2c-0.4,0-0.7,0-1.1,0
			c-0.4,0-0.8,0-1.1,0h-0.3c-0.3,0-0.6,0.2-0.7,0.5c-0.1,0.3-0.1,0.6-0.1,1V31c-0.1,0.3,0,0.6,0.2,0.9c0.2,0.2,0.5,0.3,0.8,0.3h2.2
			c0.2,0,0.5-0.1,0.6-0.2c0.1-0.2,0.2-0.4,0.2-0.6h1.9v0.5c0.1,0.5-0.1,1-0.5,1.3c-0.3,0.2-0.7,0.4-1.1,0.4c-0.6,0-1.3,0.1-1.9,0.1
			c-0.7,0-1.4,0-2.1,0c-0.5,0-1.1-0.2-1.5-0.5c-0.3-0.3-0.5-0.8-0.5-1.3c0-0.4-0.1-0.8-0.1-1.3c0-0.4,0-0.9,0-1.3
			c0-0.4,0.1-0.7,0.4-1c0.4-0.4,0.8-0.6,1.4-0.6c0.7,0,1.4-0.1,2.1-0.1c0.7,0,1.4,0,2.1,0c0.4,0,0.9,0.2,1.2,0.4
			c0.4,0.5,0.5,1.1,0.5,1.7L105,29.7z"/>
		<path id="Path_1158" class="st0" d="M115.1,27.6v1.4h-2.7v4.6h-1.9V29h-2.7v-1.4H115.1z"/>
		<path id="Path_1159" class="st0" d="M118,27.6v6h-1.9v-6H118z"/>
		<path id="Path_1160" class="st0" d="M119.3,29.3c0-0.1,0-0.2,0-0.3c0.1-0.5,0.3-0.9,0.7-1.1c0.3-0.2,0.6-0.3,1-0.3
			c0.7,0,1.5-0.1,2.2-0.1c0.9,0,1.7,0,2.6,0.1c0.1,0,0.2,0,0.3,0c0.5,0.1,1,0.4,1.3,0.8c0.2,0.4,0.3,0.8,0.3,1.2c0,0.4,0,0.8,0,1.3
			c0,0.3,0,0.6,0,0.8c0,0.4-0.1,0.8-0.4,1.2c-0.5,0.5-1.2,0.7-1.9,0.7c-0.6,0-1.2,0-1.8,0c-0.7,0-1.4,0-2.1,0
			c-0.5,0-1.1-0.1-1.5-0.4c-0.7-0.5-0.7-1.5-0.7-2.2L119.3,29.3z M124.8,32.2c0.4,0,0.8-0.1,0.9-0.4c0.1-0.2,0.2-0.3,0.2-0.5V30
			c0-0.1,0-0.2,0-0.4c-0.2-0.5-0.5-0.5-1-0.6h-2.6c-0.3,0-0.5,0.1-0.8,0.2c-0.1,0.1-0.1,0.1-0.2,0.2c-0.1,0.1-0.1,0.3-0.1,0.3
			c0,0.3-0.1,0.7,0,1c0,0.4,0,0.8,0.2,1.1c0.2,0.2,0.4,0.3,1,0.3L124.8,32.2z"/>
		<path id="Path_1161" class="st0" d="M132,27.6c0.6,0.8,1.3,1.6,2,2.4c0.6,0.7,1.2,1.5,1.7,2.2l0-2.7v-1.9h1.7v6h-3
			c-0.7-0.8-1.4-1.7-2.1-2.6c-0.5-0.6-1-1.3-1.5-2v4.6H129v-6.1H132z"/>
	</g>
	<rect id="Rectangle_184" x="84.2" y="66.5" class="st0" width="10.9" height="3.5"/>
	<rect id="Rectangle_185" x="84.2" y="59" class="st0" width="10.9" height="3.5"/>
	<path id="Path_1162" class="st0" d="M99.2,56.7l5.1-5.1v25.7l-5-5v-6.1l-2.1-1.5l2.1-1.6L99.2,56.7z"/>
	<path id="Path_1163" class="st0" d="M80.2,55h17.2l5.1-5.1H75.1V79h27.4L97.5,74H80.2L80.2,55z"/>
</g>
</svg>
