<?xml version="1.0" encoding="utf-8"?>
<!-- Generator: Adobe Illustrator 25.3.1, SVG Export Plug-In . SVG Version: 6.00 Build 0)  -->
<svg version="1.1" id="Layer_1" xmlns="http://www.w3.org/2000/svg" xmlns:xlink="http://www.w3.org/1999/xlink" x="0px" y="0px"
	 viewBox="0 0 210 84" style="enable-background:new 0 0 210 84;" xml:space="preserve">
<style type="text/css">
	.st0{fill:#000;}
</style>
<g id="Layer_2_1_" transform="translate(-173.16 -0.92)">
	<g id="Layer_1_1_" transform="translate(173.16 0.92)">
		<path id="Path_1" class="st0" d="M36.2,49c-1.2-0.7-2.3-1.8-3-3c-1.5-2.5-1.5-5.6,0-8.1c0.7-1.2,1.8-2.2,3-3
			c1.2-0.7,2.6-1.1,4-1.1c1.1,0,2.2,0.2,3.2,0.7c1,0.4,1.9,1,2.6,1.8l-1.6,1.6c-0.5-0.6-1.2-1.1-1.9-1.4C41.8,36.2,41,36,40.2,36
			c-1,0-2,0.3-2.9,0.8c-0.9,0.5-1.6,1.3-2.1,2.2c-1.6,2.8-0.7,6.5,2.1,8.2c0.9,0.5,1.9,0.8,2.9,0.8c0.8,0,1.6-0.2,2.3-0.5
			c0.7-0.3,1.4-0.8,1.9-1.4l1.6,1.6c-0.8,0.8-1.7,1.4-2.7,1.8c-1,0.4-2.1,0.7-3.2,0.7C38.8,50.1,37.4,49.7,36.2,49z M56.8,39.1
			c0.9,1,1.4,2.3,1.3,3.6v7.2h-2.2v-1.6c-0.4,0.6-1,1.1-1.7,1.4c-0.7,0.3-1.5,0.5-2.2,0.5c-1.1,0-2.2-0.3-3.1-1
			c-0.8-0.7-1.3-1.7-1.2-2.8c0-0.7,0.2-1.5,0.6-2.1c0.4-0.6,1-1.1,1.7-1.4c0.8-0.3,1.6-0.5,2.4-0.5c1.2,0,2.4,0.2,3.6,0.6v-0.4
			c0-0.8-0.2-1.6-0.7-2.2c-0.6-0.6-1.5-1-2.3-0.9c-1.2,0.1-2.3,0.4-3.3,1l-0.9-1.7c1.4-0.7,2.9-1.1,4.5-1.2
			C54.5,37.6,55.8,38.1,56.8,39.1L56.8,39.1z M54.6,47.8c0.6-0.3,1.1-0.9,1.3-1.6v-1.6c-1-0.3-2.1-0.5-3.2-0.5
			c-0.7,0-1.5,0.2-2.1,0.6c-0.5,0.3-0.8,0.9-0.8,1.6c0,0.6,0.3,1.2,0.8,1.5c0.6,0.4,1.2,0.6,1.9,0.6C53.2,48.4,53.9,48.2,54.6,47.8
			L54.6,47.8z M65.5,38.5c0.8-0.5,1.7-0.7,2.7-0.7v2c-0.8,0-1.6,0.1-2.3,0.5c-0.6,0.3-1.2,0.8-1.6,1.4c-0.4,0.6-0.6,1.3-0.5,2v6.3
			h-2.3V38h2.3v2.3C64.2,39.6,64.8,38.9,65.5,38.5L65.5,38.5z M80.1,38.5c0.8,0.5,1.5,1.3,1.9,2.2c0.5,1,0.7,2.1,0.7,3.2
			c0,1.1-0.2,2.2-0.7,3.2c-0.4,0.9-1.1,1.7-1.9,2.2c-0.8,0.5-1.8,0.8-2.8,0.8c-0.9,0-1.7-0.2-2.4-0.6c-0.7-0.4-1.4-1-1.8-1.7v2.1
			h-2.3v-16h2.3v6.3c0.4-0.7,1.1-1.4,1.8-1.8c0.8-0.4,1.6-0.6,2.5-0.6C78.4,37.7,79.3,38,80.1,38.5L80.1,38.5z M78.7,47.6
			c0.6-0.4,1-0.9,1.3-1.5c0.3-0.7,0.5-1.4,0.5-2.2c0-0.7-0.1-1.5-0.5-2.2c-0.3-0.6-0.7-1.1-1.3-1.5c-0.6-0.4-1.2-0.5-1.9-0.5
			c-0.7,0-1.3,0.2-1.9,0.5c-0.6,0.4-1,0.9-1.3,1.5c-0.3,0.7-0.5,1.4-0.5,2.2c0,0.8,0.1,1.5,0.5,2.2c0.3,0.6,0.7,1.1,1.3,1.5
			c0.6,0.4,1.2,0.5,1.9,0.5C77.5,48.2,78.1,48,78.7,47.6L78.7,47.6z M87.8,49.3c-0.9-0.5-1.7-1.3-2.3-2.3c-0.6-0.9-0.8-2-0.8-3.1
			c0-1.1,0.3-2.1,0.8-3.1c0.6-0.9,1.3-1.7,2.3-2.3c1.9-1.1,4.3-1.1,6.2,0c0.9,0.5,1.7,1.3,2.2,2.3c0.5,0.9,0.8,2,0.8,3.1
			c0,1.1-0.3,2.2-0.8,3.1c-0.5,0.9-1.3,1.7-2.3,2.3C92,50.4,89.7,50.4,87.8,49.3L87.8,49.3z M92.9,47.6c0.6-0.4,1.1-0.9,1.4-1.5
			c0.7-1.3,0.7-2.9,0-4.2c-0.3-0.6-0.8-1.2-1.4-1.5c-1.2-0.7-2.7-0.7-4,0c-0.6,0.4-1.1,0.9-1.4,1.5c-0.7,1.3-0.7,2.9,0,4.2
			c0.3,0.6,0.8,1.2,1.4,1.5C90.1,48.4,91.7,48.4,92.9,47.6z M108.2,38.3c0.7,0.4,1.2,0.9,1.6,1.6c0.4,0.7,0.6,1.6,0.6,2.4v7.5h-2.2
			v-7.1c0-0.8-0.2-1.6-0.8-2.2c-0.5-0.6-1.2-0.9-1.9-0.8c-0.6,0-1.1,0.1-1.6,0.4c-0.5,0.2-0.9,0.6-1.2,1c-0.3,0.4-0.4,0.9-0.4,1.4
			v7.4h-2.3V38h2.3v1.7c0.4-0.6,0.9-1.1,1.5-1.5C105.1,37.6,106.8,37.6,108.2,38.3L108.2,38.3z M120.5,34.1h7.5
			c0.8,0,1.6,0.2,2.3,0.5c0.6,0.3,1.2,0.8,1.6,1.4c0.4,0.6,0.6,1.3,0.6,2c0,0.7-0.2,1.4-0.6,2c-0.4,0.6-1,1.1-1.7,1.5
			c0.8,0.4,1.5,1,2.1,1.7c0.5,0.7,0.8,1.5,0.7,2.3c0,0.8-0.2,1.5-0.6,2.2c-0.4,0.7-1,1.2-1.7,1.5c-0.8,0.4-1.6,0.6-2.4,0.6h-7.8
			L120.5,34.1z M127.4,40.7c0.7,0,1.4-0.2,1.9-0.6c0.5-0.4,0.8-1,0.8-1.6c0-0.6-0.3-1.2-0.8-1.6c-0.5-0.4-1.2-0.7-1.9-0.6h-4.6v4.5
			L127.4,40.7z M127.7,47.8c0.8,0,1.5-0.2,2.1-0.7c0.6-0.5,0.9-1.1,0.8-1.9c0-0.7-0.3-1.4-0.8-1.9c-0.6-0.5-1.4-0.7-2.1-0.7h-4.9
			v5.2L127.7,47.8z M136.2,33.9h2.3v16h-2.3V33.9z M150.3,39.1c0.9,1,1.4,2.3,1.3,3.6v7.2h-2.2v-1.6c-0.4,0.6-1,1.1-1.7,1.4
			c-0.7,0.3-1.5,0.5-2.2,0.5c-1.1,0-2.2-0.3-3.1-1c-0.8-0.7-1.3-1.7-1.2-2.8c0-0.7,0.2-1.5,0.6-2.1c0.4-0.6,1-1.1,1.7-1.4
			c0.8-0.3,1.6-0.5,2.4-0.5c1.2,0,2.4,0.2,3.6,0.6v-0.4c0-0.8-0.2-1.6-0.7-2.2c-0.6-0.6-1.5-1-2.3-0.9c-1.2,0.1-2.3,0.4-3.3,1
			l-0.8-1.7c1.4-0.7,2.9-1.1,4.5-1.2C148,37.6,149.3,38.1,150.3,39.1L150.3,39.1z M148.1,47.8c0.6-0.3,1.1-0.9,1.3-1.6v-1.6
			c-1-0.3-2.1-0.5-3.2-0.5c-0.7,0-1.5,0.2-2.1,0.6c-0.5,0.3-0.8,0.9-0.8,1.6c0,0.6,0.3,1.2,0.8,1.5c0.6,0.4,1.2,0.6,1.9,0.6
			C146.7,48.4,147.4,48.2,148.1,47.8L148.1,47.8z M157.2,49.3c-0.9-0.6-1.7-1.3-2.3-2.3c-1.1-1.9-1.1-4.3,0-6.1
			c0.6-0.9,1.4-1.7,2.3-2.3c0.9-0.6,2-0.9,3.1-0.9c0.8,0,1.6,0.2,2.4,0.5c0.7,0.3,1.4,0.8,2,1.3l-1.5,1.4c-0.4-0.4-0.8-0.7-1.3-0.9
			c-1.1-0.5-2.5-0.4-3.5,0.2c-0.6,0.4-1.1,0.9-1.5,1.5c-0.4,0.6-0.5,1.4-0.5,2.1c0,0.7,0.2,1.5,0.5,2.1c0.3,0.6,0.8,1.2,1.5,1.5
			c1.1,0.7,2.4,0.8,3.5,0.2c0.5-0.2,1-0.6,1.3-1l1.5,1.4c-0.6,0.6-1.3,1.1-2,1.4c-0.8,0.3-1.6,0.5-2.4,0.5
			C159.2,50.1,158.1,49.8,157.2,49.3L157.2,49.3z M167.1,33.9h2.3v10.2l5.8-6.1h2.8l-5.1,5.3l4.8,6.5H175l-3.7-5l-1.9,1.9v3h-2.3
			L167.1,33.9z"/>
	</g>
</g>
</svg>
