<?xml version="1.0" encoding="utf-8"?>
<!-- Generator: Adobe Illustrator 25.3.1, SVG Export Plug-In . SVG Version: 6.00 Build 0)  -->
<svg version="1.1" id="Layer_1" xmlns="http://www.w3.org/2000/svg" xmlns:xlink="http://www.w3.org/1999/xlink" x="0px" y="0px"
	 viewBox="0 0 210 84" style="enable-background:new 0 0 210 84;" xml:space="preserve">
<style type="text/css">
	.st0{fill:#000;}
</style>
<g id="Cohesity_Logo" transform="translate(-1.14 -1.52)">
	<path id="Path_844" class="st0" d="M56.3,47.6c-0.3,0-0.6,0.1-0.9,0.4c-1.2,1.2-2.9,1.9-4.6,1.9c-1.6,0-3.2-0.7-4.2-1.8
		c-1.1-1.2-1.7-2.9-1.7-4.6v0c-0.2-3.3,2.4-6.2,5.7-6.3c0.1,0,0.2,0,0.3,0c1.7,0,3.3,0.6,4.5,1.8l0,0c0.2,0.2,0.5,0.3,0.8,0.3
		c0.7,0,1.4-0.6,1.4-1.3c0-0.4-0.2-0.8-0.5-1.1l0,0c-1.7-1.5-3.9-2.3-6.2-2.2c-2.4,0-4.7,0.9-6.3,2.6c-1.6,1.7-2.5,4-2.5,6.3v0
		c0,2.3,0.9,4.6,2.5,6.3c1.6,1.7,3.9,2.6,6.2,2.6c2.4,0.1,4.7-0.9,6.4-2.5c0.3-0.2,0.4-0.6,0.4-1C57.6,48.2,57,47.7,56.3,47.6z
		 M68.7,34.6c-2.4,0-4.7,0.9-6.4,2.7c-1.6,1.7-2.5,3.9-2.5,6.3v0c0,2.3,0.8,4.5,2.4,6.2c3.5,3.5,9.2,3.6,12.7,0.1
		c0,0,0.1-0.1,0.1-0.1c1.6-1.7,2.5-3.9,2.5-6.3v0c0-2.3-0.8-4.5-2.4-6.2C73.4,35.5,71.1,34.5,68.7,34.6z M74.7,43.5L74.7,43.5
		c0.2,3.4-2.4,6.2-5.8,6.4c-0.1,0-0.2,0-0.3,0c-1.7,0-3.2-0.7-4.4-1.9c-1.1-1.2-1.7-2.9-1.7-4.5v0c-0.2-3.3,2.4-6.2,5.8-6.3
		c0.1,0,0.2,0,0.3,0c1.7,0,3.2,0.7,4.4,1.9C74.1,40.2,74.7,41.8,74.7,43.5L74.7,43.5z M93.4,34.7c-0.8,0-1.4,0.6-1.4,1.4v6.1h-8.7
		v-6.1c0-0.7-0.6-1.4-1.4-1.4c-0.7,0-1.4,0.6-1.4,1.4v14.8c0,0.7,0.6,1.4,1.4,1.4c0.7,0,1.4-0.6,1.4-1.4v-6.2h8.7v6.2
		c0,0.7,0.6,1.4,1.4,1.4c0.7,0,1.4-0.6,1.4-1.4V36.1C94.8,35.4,94.2,34.7,93.4,34.7L93.4,34.7z M110.2,49.7h-9v-4.9h7.8
		c0.7,0,1.3-0.6,1.3-1.3c0,0,0,0,0,0c0-0.7-0.6-1.3-1.3-1.3h-7.8v-4.8h8.9c0.7,0,1.3-0.5,1.3-1.2c0-0.7-0.5-1.3-1.2-1.3
		c0,0,0,0-0.1,0H99.9c-0.7,0-1.3,0.6-1.3,1.4v14.6c0,0.7,0.6,1.4,1.3,1.4h10.4c0.7,0,1.3-0.6,1.2-1.3
		C111.5,50.2,110.9,49.7,110.2,49.7L110.2,49.7z M134.5,34.7c-0.7,0-1.3,0.6-1.3,1.4v14.8c0,0.7,0.6,1.4,1.4,1.4
		c0.7,0,1.4-0.6,1.4-1.4V36.1C135.9,35.3,135.3,34.7,134.5,34.7z M151.3,34.8h-11.5c-0.7,0-1.3,0.6-1.3,1.3c0,0.7,0.6,1.3,1.3,1.3
		h4.4v13.5c0,0.8,0.6,1.4,1.4,1.4c0.8,0,1.4-0.6,1.4-1.4V37.4h4.4c0.7,0,1.3-0.6,1.3-1.3C152.6,35.4,152,34.9,151.3,34.8L151.3,34.8
		z M168.9,34.7c-0.5,0-1,0.3-1.2,0.7l-5.1,7.4l-5.1-7.4c-0.3-0.4-0.7-0.7-1.2-0.7c-0.7,0-1.4,0.6-1.4,1.3c0,0.3,0.1,0.6,0.3,0.9
		l6.1,8.5v5.5c0,0.8,0.6,1.4,1.4,1.4c0.8,0,1.4-0.6,1.4-1.4v-5.6l6-8.4l0,0c0.2-0.3,0.3-0.6,0.3-0.9
		C170.2,35.3,169.6,34.7,168.9,34.7C168.9,34.7,168.9,34.7,168.9,34.7L168.9,34.7z M123.7,39.8h-3.9c-0.7-0.1-1.3,0.5-1.4,1.2
		c-0.1,0.7,0.5,1.3,1.2,1.4c0.1,0,0.1,0,0.2,0h3.9c2,0,3.6,1.6,3.6,3.6c0,2-1.6,3.6-3.6,3.6h-7.8c-0.7,0.1-1.3,0.7-1.2,1.4
		c0.1,0.6,0.6,1.1,1.2,1.2h7.8c3.4,0,6.3-2.7,6.3-6.1s-2.7-6.3-6.1-6.3C123.8,39.8,123.8,39.8,123.7,39.8L123.7,39.8z"/>
	<path id="Path_845" class="st0" d="M119.7,47.3h3.9c0.7-0.1,1.3-0.7,1.2-1.4c-0.1-0.6-0.6-1.1-1.2-1.2h-3.9c-2,0-3.6-1.6-3.6-3.6
		c0-2,1.6-3.6,3.6-3.6l0,0h7.5c0.7-0.1,1.3-0.7,1.2-1.4c-0.1-0.6-0.6-1.1-1.2-1.2h-7.5c-3.4,0-6.3,2.7-6.3,6.1s2.7,6.3,6.1,6.3
		C119.6,47.3,119.7,47.3,119.7,47.3L119.7,47.3z"/>
</g>
</svg>
