<?xml version="1.0" encoding="utf-8"?>
<!-- Generator: Adobe Illustrator 27.0.0, SVG Export Plug-In . SVG Version: 6.00 Build 0)  -->
<svg version="1.1" id="Layer_1" xmlns="http://www.w3.org/2000/svg" xmlns:xlink="http://www.w3.org/1999/xlink" x="0px" y="0px"
	 viewBox="0 0 210 84" style="enable-background:new 0 0 210 84;" xml:space="preserve">
<style type="text/css">
	.st0{fill:#2B3337;}
</style>
<g>
	<path class="st0" d="M67.2,37.2h2.4v9.7h-2.4L67.2,37.2z"/>
	<path class="st0" d="M90.7,37.2h2.4v9.7h-2.4V37.2z"/>
	<path class="st0" d="M110.3,37.2l-4.9,5.7l-4.9-5.7h-2v9.7h2v-6.5l4.5,5.3h0.5l4.5-5.5v6.6h2.3v-9.7H110.3z"/>
	<path class="st0" d="M122.7,38.9l2.3,4h-4.6L122.7,38.9z M121.7,37.2l-6,9.7h2.4l1.3-2.1h6.6l1.3,2.1h2.8l-6.1-9.7H121.7z"/>
	<g>
		<g>
			<g>
				<path class="st0" d="M141.4,38.8c0.7,0,1.1,0.1,1.1,0.8v1.1c0,0.6-0.4,0.8-1.1,0.8H136v-2.7H141.4z M133.7,46.8h2.3v-3.7h2.2
					l4,3.7h3.4l-4.6-3.7h1.3c1.6,0,2.3-0.5,2.3-1.9V39c0-1.3-0.7-1.9-2.3-1.9h-8.7V46.8z"/>
				<path class="st0" d="M52.5,45v-6.1h4.2c2.2,0,3.4,0.9,3.4,2.9c0,2.5-1.5,3.2-4.5,3.2L52.5,45z M50.1,46.9h5.9
					c4.3,0,6.4-1.6,6.4-4.9c0-3-2-4.8-5.8-4.8h-6.5V46.9z"/>
				<path class="st0" d="M83.3,45.1h-4.2c-2.2,0-3.4-0.9-3.4-2.9c0-2.5,1.5-3.2,4.5-3.2h5.2v-1.8h-5.7c-4.3,0-6.4,1.6-6.4,4.9
					c0,3,2,4.8,5.8,4.8h6.3v-5.4h-4.7v1.9h2.6L83.3,45.1z"/>
				<path class="st0" d="M159.9,45.1h-5.4c-2.2,0-3.4-0.9-3.4-2.9c0-2.5,1.5-3.2,4.5-3.2h4.3v-1.8h-4.8c-4.3,0-6.4,1.6-6.4,4.9
					c0,3,2,4.8,5.8,4.8h5.4L159.9,45.1z"/>
			</g>
		</g>
	</g>
</g>
</svg>
