<?xml version="1.0" encoding="utf-8"?>
<!-- Generator: Adobe Illustrator 25.2.3, SVG Export Plug-In . SVG Version: 6.00 Build 0)  -->
<svg version="1.1" xmlns="http://www.w3.org/2000/svg" xmlns:xlink="http://www.w3.org/1999/xlink" x="0px" y="0px"
	 viewBox="0 0 353.6 76.2" style="enable-background:new 0 0 353.6 76.2;" xml:space="preserve">
<style type="text/css">
	.st0{fill:#E70A89;}
</style>
<g id="Layer_1">
	<g>
		<g>
			<path d="M6.1,13.6h35.8c1.3,0,2.3,1,2.3,2.3v3.5c0,1.3-1,2.3-2.3,2.3H12.2v16.9h22.9c1.3,0,2.3,1,2.3,2.3v3.5
				c0,1.3-1,2.3-2.3,2.3H12.2v17.9h29.6c1.3,0,2.3,1,2.3,2.3v3.5c0,1.3-1,2.3-2.3,2.3H6.1c-1.3,0-2.3-1-2.3-2.3V15.8
				C3.8,14.6,4.8,13.6,6.1,13.6z"/>
		</g>
		<path d="M49.4,62.3l2-1.5c1.1-0.8,2.6-0.7,3.4,0.4c2.8,3.6,6.6,5.2,9.9,5.2c5,0,8-3,8-6.3c0-2.7-1.8-4.5-4.1-5.7
			c-2.8-1.5-8.4-3.5-11.2-5.1c-4.8-2.6-6.9-6.8-6.9-11c0-7.2,5.7-12.7,14.8-12.7c4.8,0,9.7,1.7,13,5.4c0.8,0.9,0.7,2.4-0.2,3.3
			L76.3,36c-0.9,0.9-2.4,0.9-3.3,0c-2.4-2.5-5.5-3.5-8.3-3.5c-4.3,0-6.5,2.6-6.5,5.5c0,1.9,0.9,4,3.8,5.3c3,1.4,7.5,3.1,11.1,5
			c4.7,2.5,7.7,6,7.7,11.4c0,7.6-6.6,13.8-16.3,13.8c-5.7,0-11.7-2.4-15.6-7.9C48.1,64.5,48.4,63.1,49.4,62.3z"/>
		<path d="M117.5,70.1V29.6c0-1.3,1.1-2.4,2.4-2.4h3.3c1.3,0,2.4,1.1,2.4,2.4v40.4c0,1.3-1.1,2.4-2.4,2.4h-3.3
			C118.6,72.4,117.5,71.4,117.5,70.1z"/>
		<path d="M204.8,45.5v24.6c0,1.3-1.1,2.4-2.4,2.4h-3.3c-1.3,0-2.4-1.1-2.4-2.4V46.7c0-8.6-4.3-13.3-10.9-13.3
			c-7.1,0-12.1,5.4-12.1,13.4v23.1c0,1.3-1.1,2.4-2.4,2.4H168c-1.3,0-2.4-1.1-2.4-2.4V46.9c0-8.4-4.2-13.4-11-13.4
			c-7,0-12.2,5.3-12.2,13.6v23c0,1.3-1.1,2.4-2.4,2.4h-3.3c-1.3,0-2.4-1.1-2.4-2.4V29.6c0-1.3,1.1-2.4,2.4-2.4h3.2
			c1.3,0,2.4,1.1,2.4,2.4v4.2C145,29,150,25.9,156,26c5.9,0,11.7,3,14.2,8.5c3-5.1,9.3-8.5,16.5-8.5C197.7,26,204.8,33.5,204.8,45.5
			z"/>
		<path d="M255.9,29.6v40.4c0,1.3-1.1,2.4-2.4,2.4h-3c-1.3,0-2.4-1.1-2.4-2.4v-4c-3.9,4.8-9.4,7.5-16,7.5c-13,0-22.6-10.5-22.6-24.1
			c0-13.5,9.6-23.4,22.6-23.4c6.6,0,12,2.9,16,7.7v-4.1c0-1.3,1.1-2.4,2.4-2.4h3C254.8,27.2,255.9,28.3,255.9,29.6z M247.9,49.7
			c0-8.8-6.1-16.2-15.5-16.2c-9.5,0-15.4,7.4-15.4,16.3s5.9,16.3,15.4,16.3C241.8,66.1,247.9,58.7,247.9,49.7z"/>
		<path d="M294,70.1V29.6c0-1.3,1.1-2.4,2.4-2.4h3.3c1.3,0,2.4,1.1,2.4,2.4v40.4c0,1.3-1.1,2.4-2.4,2.4h-3.3
			C295.1,72.4,294,71.4,294,70.1z"/>
		<path d="M307,49.8c0-13.9,10.1-23.7,24.3-23.7c8,0,15.4,3.7,19.3,9.7c0.7,1.1,0.3,2.6-0.8,3.3l-2.7,1.6c-1.1,0.6-2.4,0.3-3.1-0.6
			c-3.8-5-10-7.7-16.8-6c-7.2,1.9-12.1,8.7-12,16.1c0.2,9,6.7,15.9,15.7,15.9c5,0,10-2.7,12.9-6.4c0.7-0.9,2-1.1,3.1-0.6l2.7,1.5
			c1.2,0.7,1.6,2.3,0.8,3.4c-4.1,5.7-11.4,9.5-19.4,9.5C316.9,73.5,307,63.6,307,49.8z"/>
		<path class="st0" d="M130.6,10h-5.7V4.4c0-0.8-0.7-1.5-1.5-1.5h-3.6c-0.8,0-1.5,0.7-1.5,1.5V10h-5.7c-0.8,0-1.5,0.7-1.5,1.5v3.6
			c0,0.8,0.7,1.5,1.5,1.5h5.7v5.7c0,0.8,0.7,1.5,1.5,1.5h3.6c0.8,0,1.5-0.7,1.5-1.5v-5.7h5.7c0.8,0,1.5-0.7,1.5-1.5v-3.6
			C132.1,10.7,131.4,10,130.6,10z"/>
		<path class="st0" d="M300.4,16.7h5.7c0.8,0,1.5-0.7,1.5-1.5v-3.6c0-0.8-0.7-1.5-1.5-1.5h-5.7H297h-5.7c-0.8,0-1.5,0.7-1.5,1.5v3.6
			c0,0.8,0.7,1.5,1.5,1.5h5.7H300.4z"/>
		<path d="M106.6,34.2c1.3,0,2.3-1,2.3-2.3v-2.4c0-1.3-1-2.3-2.3-2.3h-6.7V15.8c0-1.3-1-2.3-2.3-2.3h-3.4c-1.3,0-2.3,1-2.3,2.3v11.5
			h-6.7c-1.3,0-2.3,1-2.3,2.3v2.4c0,1.3,1,2.3,2.3,2.3h6.6V46v10.6c0,10.5,4.6,16.9,14.4,16.9c1.4,0,2.2-0.2,3.1-0.5
			c2-0.7,1.7-1.4,1.2-3.8c-0.5-2.4-0.3-3.4-2.7-3.2c-0.2,0-0.3,0-0.7,0.1c-1.6,0.1-3.6-0.5-4.7-1.4c-1.9-1.5-2.6-4.1-2.6-7.6v-23
			H106.6z"/>
		<path d="M284,34.2c1.3,0,2.3-1,2.3-2.3v-2.4c0-1.3-1-2.3-2.3-2.3h-6.7V15.8c0-1.3-1-2.3-2.3-2.3h-3.4c-1.3,0-2.3,1-2.3,2.3v11.5
			h-6.7c-1.3,0-2.3,1-2.3,2.3v2.4c0,1.3,1,2.3,2.3,2.3h6.6V46v10.6c0,10.5,4.6,16.9,14.4,16.9c1.4,0,2.2-0.2,3.1-0.5
			c2-0.7,1.7-1.4,1.2-3.8c-0.5-2.4-0.3-3.4-2.7-3.2c-0.2,0-0.3,0-0.7,0.1c-1.6,0.1-3.6-0.5-4.7-1.4c-1.9-1.5-2.6-4.1-2.6-7.6v-23
			H284z"/>
	</g>
</g>
<g id="Layer_2">
</g>
<g id="Layer_3">
</g>
<g id="Layer_4">
</g>
<g id="Layer_5">
</g>
<g id="Layer_6">
</g>
<g id="Layer_7">
</g>
</svg>
