<?xml version="1.0" encoding="utf-8"?>
<!-- Generator: Adobe Illustrator 25.3.1, SVG Export Plug-In . SVG Version: 6.00 Build 0)  -->
<svg version="1.1" id="Layer_1" xmlns="http://www.w3.org/2000/svg" xmlns:xlink="http://www.w3.org/1999/xlink" x="0px" y="0px"
	 viewBox="0 0 210 84" style="enable-background:new 0 0 210 84;" xml:space="preserve">
<style type="text/css">
	.st0{fill:#000;}
</style>
<g id="Group_3" transform="translate(-349.5 362.4)">
	<path id="Path_2" class="st0" d="M512.7-310.1c0-0.8,0.6-1.3,1.4-1.3c0.7,0,1.3,0.6,1.3,1.3c0,0.8-0.6,1.3-1.4,1.3
		C513.3-308.8,512.7-309.4,512.7-310.1z M515.2-310.1c0-0.6-0.5-1.2-1.1-1.2c0,0,0,0,0,0H514c-0.7,0-1.2,0.5-1.2,1.2l0,0
		c0,0.7,0.5,1.2,1.2,1.2l0,0c0.6,0,1.1-0.4,1.2-1.1C515.2-310,515.2-310,515.2-310.1C515.2-310.1,515.2-310.1,515.2-310.1
		L515.2-310.1z M513.5-310.8h0.6c0.3,0,0.5,0.1,0.5,0.4c0,0.2-0.1,0.3-0.3,0.4l0.4,0.5h-0.2l-0.3-0.5h-0.3v0.5h-0.3L513.5-310.8
		L513.5-310.8z M514.1-310.1c0.2,0,0.3-0.1,0.3-0.2c0-0.2-0.1-0.3-0.3-0.2h-0.3v0.5L514.1-310.1z"/>
	<g id="Group_1" transform="translate(349.5 -362.4)">
		<path id="Path_46" class="st0" d="M147.4,40.3c-0.1,0-0.1,0-0.9,0h-2.6v1.5h2.6c0.9,0,0.9,0,1-0.1l0,0c0.1,0,0.2-0.2,0.2-0.7
			C147.7,40.6,147.6,40.4,147.4,40.3z"/>
		<path id="Path_47" class="st0" d="M120.7,40.3c-1.8,0-2,0-2.2,0.3c-0.1,0.5-0.1,0.9-0.1,1.4c0,0.7,0,1.1,0.2,1.2s0.6,0.2,2.1,0.2
			c1.5,0,1.9,0,2.1-0.2l0,0c0.1-0.1,0.2-0.5,0.2-1.2c0.1-0.5,0-1-0.1-1.5C122.7,40.3,122.4,40.3,120.7,40.3z"/>
		<path id="Path_48" class="st0" d="M100.3,40.3h-2.5v2.9h2.5c1.7,0,1.7,0,1.8-1.4c0-0.7,0-1.1-0.2-1.3S101.4,40.3,100.3,40.3z"/>
		<path id="Path_49" class="st0" d="M64.2,42.4h2.6L65.5,40L64.2,42.4z"/>
		<path id="Path_50" class="st0" d="M80.8,42.4h2.6L82.1,40L80.8,42.4z"/>
		<path id="Path_51" class="st0" d="M154.3,40.3c-1.8,0-2,0-2.2,0.3c-0.1,0.5-0.1,0.9-0.1,1.4c0,0.7,0,1.1,0.2,1.2s0.6,0.2,2.1,0.2
			c1.5,0,1.9,0,2.1-0.2l0,0c0.1-0.1,0.2-0.5,0.2-1.2c0.1-0.5,0-1-0.1-1.5C156.2,40.3,155.9,40.3,154.3,40.3z"/>
		<path id="Path_52" class="st0" d="M105,28.1c-38.2,0-69.1,6.2-69.1,13.9S66.8,55.9,105,55.9s69.1-6.2,69.1-13.9
			S143.2,28.1,105,28.1z M52.9,44.8H51v-2.2h-3.8v2.2h-1.9v-6h1.9v2.1H51v-2.1h1.9V44.8z M60.5,44.8h-6.7v-6h6.7v1.4h-4.9V41h4.7
			v1.3h-4.7v0.9h4.9V44.8z M68,44.8l-0.5-1h-4l-0.5,1h-2.1l3.2-6h2.7l3.2,6H68z M75.8,40.4h-2.7v4.5h-1.9v-4.5h-2.7v-1.5h7.2
			L75.8,40.4z M84.6,44.8l-0.5-1h-4l-0.5,1h-2.1l3.2-5.9h2.7l3.2,5.9H84.6z M95,44.8h-3l-3.1-4.5l0,4.5h-1.8v-6h3l3.1,4.5l0-4.5h1.8
			L95,44.8L95,44.8z M103.8,41.7c0,1.5-0.1,2.1-0.6,2.6c-0.5,0.4-1,0.5-3,0.5h-4.3v-6h4.3c0.7,0,1.5,0,2.2,0.1c0.5,0.1,1,0.5,1.2,1
			C103.8,40.5,103.9,41.1,103.8,41.7L103.8,41.7z M115.2,44.4c-0.5,0.3-0.8,0.4-3.3,0.4c-2.5,0-2.9-0.1-3.3-0.4s-0.6-0.9-0.6-2.7
			c0-1.7,0.1-2.3,0.6-2.6s0.8-0.4,3.3-0.4s2.8,0.1,3.3,0.4c0.4,0.3,0.5,0.7,0.6,1.8h-1.8c0-0.2-0.1-0.4-0.1-0.5
			c-0.1-0.1-0.2-0.2-1.9-0.2c-1.8,0-1.8,0-2,0.3c-0.1,0.5-0.1,0.9-0.1,1.4c0,0.7,0,1.1,0.2,1.2c0.2,0.1,0.4,0.2,1.9,0.2
			c1.4,0,1.7,0,1.8-0.2c0.1,0,0.1-0.3,0.2-0.7h1.8C115.7,43.7,115.6,44.1,115.2,44.4L115.2,44.4z M124.8,41.8c0,1.7-0.1,2.3-0.6,2.7
			s-1,0.4-3.5,0.4c-2.5,0-3.1-0.1-3.5-0.4s-0.6-0.9-0.6-2.7c0-1.7,0.1-2.3,0.6-2.6c0.5-0.3,1-0.4,3.5-0.4s3.1,0.1,3.5,0.4l0,0
			C124.7,39.5,124.8,40.1,124.8,41.8L124.8,41.8z M133.6,44.8h-3l-3.1-4.5l0,4.5h-1.8v-6h3l3.1,4.5l0-4.5h1.8L133.6,44.8L133.6,44.8
			z M141.5,40.4h-2.7v4.5h-1.9v-4.5h-2.6v-1.5h7.2L141.5,40.4L141.5,40.4z M149.5,43.5v1.3h-1.8v-0.3c0-0.7,0-0.8-0.2-1
			c-0.1-0.1-0.3-0.1-1-0.1h-2.6v1.5h-1.8v-5.9h4.4c2,0,2,0,2.4,0.2c0.4,0.2,0.6,0.7,0.6,1.7l0,0c0,0.9-0.1,1.2-0.3,1.5
			c-0.1,0.1-0.2,0.2-0.3,0.2C149.2,42.6,149.5,43,149.5,43.5L149.5,43.5z M158.3,41.8c0,1.7-0.1,2.3-0.6,2.7s-1,0.4-3.5,0.4
			c-2.5,0-3.1-0.1-3.5-0.4s-0.6-0.9-0.6-2.7c0-1.7,0.1-2.3,0.6-2.6c0.5-0.3,1-0.4,3.5-0.4s3.1,0.1,3.5,0.4
			C158.2,39.5,158.4,40.1,158.3,41.8L158.3,41.8z M165.7,44.8h-6.5v-6h1.9v4.5h4.7V44.8z"/>
	</g>
</g>
</svg>
