<?xml version="1.0" encoding="utf-8"?>
<!-- Generator: Adobe Illustrator 25.3.1, SVG Export Plug-In . SVG Version: 6.00 Build 0)  -->
<svg version="1.1" id="Group_32" xmlns="http://www.w3.org/2000/svg" xmlns:xlink="http://www.w3.org/1999/xlink" x="0px" y="0px"
	 viewBox="0 0 210 84" style="enable-background:new 0 0 210 84;" xml:space="preserve">
<style type="text/css">
	.st0{clip-path:url(#SVGID_2_);}
	.st1{fill:#000;}
</style>
<g id="Group_31" transform="translate(0 0)">
	<g id="Group_3430" transform="translate(0 0)">
		<g id="Group_3429">
			<g>
				<defs>
					<path id="SVGID_1_" d="M111.8,59.1V34h5.3v1.7c1.2-1.4,3-2.2,4.8-2.1c4.6,0,8.2,4.2,8.2,9.2s-3.5,9.3-8.2,9.3
						c-1.9,0-3.6-0.8-4.8-2.2V59L111.8,59.1L111.8,59.1z M116.7,42.9c0,2.6,1.6,4.4,4.1,4.4c2.2,0,4.1-1.8,4.1-4c0-0.1,0-0.2,0-0.4
						c0.2-2.2-1.5-4.2-3.7-4.4c-0.1,0-0.2,0-0.4,0C118.3,38.5,116.7,40.3,116.7,42.9z M91,59.1V34h5.3v1.7c1.2-1.4,3-2.2,4.8-2.1
						c4.6,0,8.2,4.2,8.2,9.2s-3.5,9.3-8.2,9.3c-1.9,0-3.6-0.8-4.8-2.2V59L91,59.1L91,59.1z M95.9,42.9c0,2.6,1.6,4.4,4.1,4.4
						c2.2,0,4.1-1.8,4.1-4c0-0.1,0-0.2,0-0.4c0.2-2.2-1.5-4.2-3.7-4.4c-0.1,0-0.2,0-0.4,0C97.5,38.4,95.9,40.3,95.9,42.9L95.9,42.9z
						 M131.5,42.9c-0.1-5.1,4.1-9.4,9.2-9.4s9.4,4.1,9.4,9.2c0.1,5.1-4.1,9.4-9.2,9.4l0,0h-0.1C135.7,52.1,131.5,48,131.5,42.9z
						 M136.8,42.9c-0.2,2.2,1.5,4.1,3.6,4.2c2.2,0.2,4.1-1.5,4.2-3.6c0-0.2,0-0.4,0-0.6c0.2-2.2-1.5-4.1-3.6-4.2
						c-2.2-0.2-4.1,1.5-4.2,3.6C136.8,42.5,136.8,42.7,136.8,42.9z M81.2,51.7V34h5.3v17.7H81.2z M71.7,51.7v-9.3
						c0-2.4-1-3.9-2.9-3.9c-2,0-3.5,1.5-3.5,4.6v8.6h-5.3V25.2h5.3v10.6c1.2-1.5,3-2.3,4.9-2.2c4.4,0,6.9,3.2,6.9,7.9v10.2H71.7z
						 M80.5,28.2c0-1.9,1.5-3.3,3.4-3.3c1.9,0,3.3,1.5,3.3,3.4c0,1.9-1.5,3.3-3.3,3.3l0,0h-0.1C82,31.5,80.5,30.1,80.5,28.2z"/>
				</defs>
				<clipPath id="SVGID_2_">
					<use xlink:href="#SVGID_1_"  style="overflow:visible;"/>
				</clipPath>
				<g id="Group_30" class="st0">
					<rect id="Rectangle_36" x="57.3" y="22.4" class="st1" width="95.3" height="39.3"/>
				</g>
			</g>
		</g>
	</g>
</g>
</svg>
