<?xml version="1.0" encoding="utf-8"?>
<!-- Generator: Adobe Illustrator 25.3.1, SVG Export Plug-In . SVG Version: 6.00 Build 0)  -->
<svg version="1.1" id="Layer_1" xmlns="http://www.w3.org/2000/svg" xmlns:xlink="http://www.w3.org/1999/xlink" x="0px" y="0px"
	 viewBox="0 0 210 84" style="enable-background:new 0 0 210 84;" xml:space="preserve">
<style type="text/css">
	.st0{fill:#000;}
</style>
<g id="layer1" transform="translate(-186.914 -626.319)">
	<g id="g4214" transform="translate(186.914 626.319)">
		<g id="Group_3350" transform="translate(0 0)">
			<g id="g4216" transform="translate(0)">
				<g id="g4222">
					<path id="path4224" class="st0" d="M52.1,34.9c-0.2,0-0.4,0-0.6,0.1c-0.2,0.2-0.3,0.5-0.3,0.7v3.1h0.1v-0.7l1-0.3v0.9h0.1v-3
						C52.7,35.2,52.6,34.9,52.1,34.9 M51.8,32.2c-1,0.3-1.9,0.7-2.7,1.3V35h-0.3v3.1l-1.2-1.2l-1,2.1v1.6L46,41.3L45.8,60h0.4
						l0.1-17.2v-0.9l0.6-1v-1.5l0.6-0.1V39H47l0.6-1.2l0.4,0.7v2.8h0.4l0.7-0.9v-1.9l-0.1-0.1V35h0.4v-1.3c0.6-0.4,1.3-0.7,1.9-0.9
						L51.8,32.2z M54,26v1.2h0.3V26c0-0.3,0.3-0.1,0.4-0.1l0,0C54.3,25.7,54,25.6,54,26 M54.3,27.7h0.9v-2.5h-0.7
						c-0.3,0-0.6,0-0.9,0.1l0,0v2.4L54.3,27.7 M54.5,31.3c-1.5,0-3.1,0.3-4.5,0.9l0,0c0,0,0.1-3.4,3.3-4v-0.3h0.1v-2.4l0,0
						c0-0.6,0.4-1,1-1c0,0,0,0,0,0v-0.4h0.1v0.3c0.9,0,1,1.2,1,1.2l0,0v2.4h0.1V28c2.8,0.7,3,4.2,3,4.2C57.4,31.7,56,31.4,54.5,31.3
						 M57.6,43.8c0.1,0.1,0.1,0,0.1,0.3c0.1,0.8,0.1,1.7,0,2.5v8.2c0,0.6,0.3-0.9,0.3-0.9v-7.8c0-0.9,0.1-2.4-0.3-2.5
						C57.8,43.8,57.5,43.7,57.6,43.8 M58.5,35.3c0.1,0.1,0.2,0.3,0.3,0.4v3.6l0.3,0.1c0-2.7,0.1-3.9-0.4-4.2L58.5,35.3z M59.3,42.9
						h0.3v-0.6h-0.3V42.9z M59.7,45c-0.1-0.1-0.2-0.1-0.3,0c0,0,0,0,0,0c0-0.1,0.1,0,0.1,0.3c0.1,0.8,0.1,1.7,0,2.5V55
						c0,0.4,0.3-0.7,0.3-0.7v-6.4C60,47,60.2,45.2,59.7,45 M59,42h-0.3v0.6h0.1V42H59z M56,60l0.2-22l-0.7-2.1l-0.7,1.8l-0.1,0.6
						l-0.1,1.5h-0.3v-6.4h0.4l0.3,1.3c0,0,0.9-0.4,1.3,1.2L56,36.5l0.9,1.2l0.3,2.5l0.3,0.3v-7.8l-0.1-0.1v-0.4l2.2,0.7v1l0.4,0.3
						v5.1l0.6-1.2l0.6,2.1l0.3,0.1v2.2l0.4,0.4L62.4,60L56,60z M53.9,43.7h0.6c0-0.4-0.1-0.9-0.7-0.9c-0.4,0-0.9,0.1-0.9,1
						c0,0.9,0.2,10,0.2,10V54l0.4-0.4l0.1-7.9l0.4-0.1v-0.3h-0.4C53.6,45.2,53.6,43.7,53.9,43.7 M51.4,44.1H52
						c0-0.4-0.1-0.9-0.7-0.9c-0.4,0-0.9,0.1-0.9,1s0.2,12.3,0.2,12.3l0.6-0.6l0.1-9.9l0.4-0.1v-0.3l-0.4,0.1
						C51.1,45.8,50.9,44.3,51.4,44.1 M48.7,44.9h0.7c0-0.6-0.1-1-0.7-1c-0.6,0.1-1,0.3-1,1.3V60h0.4v-2.1l0.3-10.8l0.4-0.1v-0.3
						l-0.4,0.1C48.5,46.7,48.4,45,48.7,44.9 M51.5,42h0.1v-0.7h-0.1V42z M50.9,41.3h-0.1v0.9h0.1V41.3z M50.3,33.8h0.4v5.7h-0.4
						V33.8z"/>
				</g>
				<g id="g4226" transform="translate(25.709 8.665)">
					<path id="path4228" class="st0" d="M46,23.9h2.7v6.3H56v-6.3h2.7v15.2h-2.8v-6.4h-7.3v6.4h-2.7L46,23.9z"/>
				</g>
				<g id="g4230" transform="translate(40.427 8.617)">
					<path id="path4232" class="st0" d="M58.8,31.7L58.8,31.7c0.1-2.8-2-5.2-4.8-5.4c-0.1,0-0.2,0-0.2,0c-2.8,0-5.1,2.3-5.1,5.1
						c0,0.1,0,0.1,0,0.2l0,0c-0.1,2.8,2,5.2,4.8,5.4c0.1,0,0.2,0,0.2,0C56.7,37.1,58.8,34.7,58.8,31.7 M45.8,31.7L45.8,31.7
						c-0.1-4.2,3.3-7.7,7.5-7.8c0.1,0,0.2,0,0.4,0c4.2-0.1,7.6,3.1,7.8,7.3c0,0.2,0,0.3,0,0.5l0,0c0,4.3-3.4,7.8-7.7,7.8
						c-0.1,0-0.1,0-0.2,0c-4.2,0.1-7.7-3.3-7.8-7.5C45.8,31.9,45.8,31.8,45.8,31.7"/>
				</g>
				<g id="g4234" transform="translate(57.978 8.617)">
					<path id="path4236" class="st0" d="M58.7,31.7L58.7,31.7c0.1-2.8-2-5.2-4.8-5.4c-0.1,0-0.2,0-0.2,0c-2.8,0-5.1,2.3-5.1,5.1
						c0,0.1,0,0.1,0,0.2l0,0c-0.1,2.8,2,5.2,4.8,5.4c0.1,0,0.2,0,0.2,0c2.8,0.1,5-2.1,5.1-4.9C58.7,31.9,58.7,31.8,58.7,31.7
						 M45.8,31.7L45.8,31.7c-0.1-4.2,3.3-7.7,7.5-7.8c0.1,0,0.2,0,0.4,0c4.2-0.1,7.6,3.1,7.8,7.3c0,0.2,0,0.3,0,0.5l0,0
						c0,4.3-3.4,7.8-7.7,7.8c-0.1,0-0.1,0-0.2,0c-4.2,0.1-7.7-3.3-7.8-7.5C45.8,31.9,45.8,31.8,45.8,31.7"/>
				</g>
				<g id="g4238" transform="translate(73.822 8.665)">
					<path id="path4240" class="st0" d="M45.8,23.9h3l4.6,11.7l4.6-11.7h2.8l-6.3,15.4h-2.4L45.8,23.9z"/>
				</g>
				<g id="g4242" transform="translate(90.793 8.665)">
					<path id="path4244" class="st0" d="M46,23.9h11.2v2.4h-8.7v3.9h7.6v2.4h-7.6v4h8.7V39H45.8V23.9L46,23.9z"/>
				</g>
				<g id="g4246" transform="translate(104.988 8.668)">
					<path id="path4248" class="st0" d="M52.6,31.6c1.9,0,3.1-1,3.1-2.5l0,0c0-1.6-1.2-2.5-3.1-2.5h-3.9v5.1L52.6,31.6z M46,23.9
						h6.7c1.6-0.1,3.1,0.4,4.3,1.5c0.8,0.9,1.2,2.1,1.2,3.3l0,0c0.1,2.2-1.4,4.2-3.6,4.6l4,5.8h-3.1L51.8,34h-3.3v5.2h-2.7
						C46,39.2,46,23.9,46,23.9z"/>
				</g>
				<path id="path4250" class="st0" d="M71.6,51.1h1.5V60h-1.5V51.1z"/>
				<g id="g4252" transform="translate(30.672 27.167)">
					<path id="path4254" class="st0" d="M45.8,23.9h1.5l4.6,6.1v-6.1h1.5v8.8h-1.3l-4.8-6.3v6.3h-1.5L45.8,23.9z"/>
				</g>
				<g id="g4256" transform="translate(40.569 27.256)">
					<path id="path4258" class="st0" d="M45.8,31.4l0.9-1c0.8,0.6,1.8,1,2.8,1c0.9,0,1.5-0.4,1.5-1l0,0c0-0.6-0.3-0.9-1.9-1.3
						c-1.8-0.4-3-1-3-2.5l0,0c0-1.5,1.2-2.5,3-2.5c1.1,0,2.2,0.4,3.1,1l-0.7,1c-0.7-0.6-1.5-0.9-2.4-0.9c-0.9,0-1.5,0.4-1.5,1l0,0
						c0,0.7,0.4,1,2.1,1.3c1.8,0.4,2.8,1,2.8,2.5l0,0c0,1.6-1.3,2.5-3.1,2.5C48.1,32.7,46.8,32.3,45.8,31.4"/>
				</g>
				<g id="g4260" transform="translate(49.509 27.157)">
					<path id="path4262" class="st0" d="M48.7,25.4h-2.8v-1.5H53v1.5h-2.8v7.3h-1.5V25.4z"/>
				</g>
				<path id="path4264" class="st0" d="M105.8,51.1h1.5V60h-1.5V51.1z"/>
				<g id="g4266" transform="translate(64.626 27.157)">
					<path id="path4268" class="st0" d="M48.7,25.4h-2.8v-1.5H53v1.5h-2.8v7.3h-1.5L48.7,25.4L48.7,25.4z"/>
				</g>
				<g id="g4270" transform="translate(74.669 27.195)">
					<path id="path4272" class="st0" d="M45.8,29v-5.1h1.5v4.9c0,1.6,0.9,2.5,2.2,2.5c1.2,0.1,2.2-0.8,2.3-1.9c0-0.2,0-0.3,0-0.5
						v-5.1h1.5v4.9c0,2.7-1.5,3.9-3.7,3.9C47.3,32.9,45.8,31.6,45.8,29"/>
				</g>
				<g id="g4274" transform="translate(85.125 27.157)">
					<path id="path4276" class="st0" d="M48.7,25.4h-2.8v-1.5H53v1.5h-2.8v7.3h-1.5L48.7,25.4z"/>
				</g>
				<path id="path4278" class="st0" d="M141.1,51.1h1.5V60h-1.5V51.1z"/>
				<g id="g4280" transform="translate(99.161 27.144)">
					<path id="path4282" class="st0" d="M53.5,28.4L53.5,28.4c0.1-1.6-1.1-3-2.7-3.1c-0.1,0-0.2,0-0.2,0c-1.6,0-3,1.3-3,2.9
						c0,0.1,0,0.2,0,0.2l0,0c-0.1,1.7,1.2,3.1,2.9,3.1c0,0,0,0,0.1,0C52.1,31.5,53.5,30.2,53.5,28.4C53.5,28.5,53.5,28.5,53.5,28.4
						 M45.8,28.4L45.8,28.4c0-2.5,1.9-4.5,4.4-4.5c0.1,0,0.2,0,0.2,0c2.5-0.1,4.6,1.9,4.6,4.4c0,0,0,0,0,0.1l0,0
						c0,2.5-2.1,4.5-4.6,4.5c0,0,0,0-0.1,0C48,33,45.9,31,45.8,28.4C45.8,28.5,45.8,28.4,45.8,28.4"/>
				</g>
				<g id="g4284" transform="translate(110.713 27.167)">
					<path id="path4286" class="st0" d="M45.8,23.9h1.5l4.6,6.1v-6.1h1.5v8.8h-1.3l-4.8-6.3v6.3h-1.5L45.8,23.9z"/>
				</g>
			</g>
		</g>
	</g>
</g>
</svg>
