<?xml version="1.0" encoding="utf-8"?>
<!-- Generator: Adobe Illustrator 25.3.1, SVG Export Plug-In . SVG Version: 6.00 Build 0)  -->
<svg version="1.1" id="Layer_1" xmlns="http://www.w3.org/2000/svg" xmlns:xlink="http://www.w3.org/1999/xlink" x="0px" y="0px"
	 viewBox="0 0 210 84" style="enable-background:new 0 0 210 84;" xml:space="preserve">
<style type="text/css">
	.st0{fill:#000;}
</style>
<g id="Kount_White" transform="translate(-0.05 0.038)">
	<path id="Path_1117" class="st0" d="M61.4,26.6l-6.3-2.1c-0.9-0.3-1.9,0.1-2.5,0.8L41.5,40.7c-0.5,0.8-0.5,1.8,0,2.6l11.2,15.4
		c0.6,0.7,1.6,1.1,2.5,0.8l6.1-2L50.1,42.1L61.4,26.6z"/>
	<path id="Path_1118" class="st0" d="M74.7,51.5v-19c0-0.9-0.7-1.8-1.5-2.1l-8.9-2.9L53.6,42.1l10.5,14.4l9-2.9
		C74.1,53.2,74.7,52.4,74.7,51.5z"/>
	<path id="Path_1119" class="st0" d="M100,40.1c0-3,2.2-5.1,7.4-5.1s7.4,2,7.4,5.1v8.8c0,3-2.2,5.1-7.4,5.1s-7.4-2-7.4-5.1V40.1z
		 M111.3,40.4c0-1.6-1.1-2.5-3.9-2.5s-3.9,0.9-3.9,2.5v8.2c0,1.6,1.1,2.5,3.9,2.5s3.9-0.9,3.9-2.5V40.4z"/>
	<path id="Path_1120" class="st0" d="M128.9,51.8c-1.6,1.4-3.8,2.2-5.9,2.1c-3.4,0-5.2-2-5.2-4.7V36c0-0.5,0.2-0.7,0.7-0.7h2.1
		c0.5,0,0.7,0.2,0.7,0.7v12.3c0,1.5,0.7,2.5,2.7,2.5c1.8-0.1,3.5-0.7,4.8-1.9V36c0-0.5,0.2-0.7,0.7-0.7h2.2c0.5,0,0.7,0.2,0.7,0.7
		v16.8c0,0.5-0.2,0.7-0.7,0.7h-2c-0.5,0-0.7-0.2-0.7-0.7L128.9,51.8z"/>
	<path id="Path_1121" class="st0" d="M138,35.3c0.5,0,0.7,0.2,0.7,0.7l0.1,1.2c1.7-1.4,3.9-2.2,6.2-2.2c3.4,0,5.2,2,5.2,4.7v13.1
		c0,0.5-0.2,0.7-0.7,0.7h-2.1c-0.5,0-0.7-0.2-0.7-0.7V40.6c0-1.5-0.7-2.5-2.7-2.5c-1.8,0.1-3.6,0.7-5,1.9v12.8
		c0,0.5-0.2,0.7-0.7,0.7h-2.1c-0.5,0-0.7-0.2-0.7-0.7V36c0-0.5,0.2-0.7,0.7-0.7L138,35.3L138,35.3z"/>
	<path id="Path_1122" class="st0" d="M161.6,35.3c0.5,0,0.7,0.2,0.7,0.7l0,1.5c0,0.5-0.2,0.7-0.7,0.7h-3.8v10.1c0,1.5,1,2.5,3.7,2.5
		h0.7c0.5,0,0.7,0.2,0.7,0.7v1.6c0,0.5-0.2,0.7-0.7,0.7H161c-5.2,0-6.8-1.8-6.8-5.1V38.3h-2c-0.5,0-0.7-0.2-0.7-0.7v-1.3
		c0-0.5,0.2-0.7,0.7-0.7l1.8-0.2h0.2l0-3.4c0-0.5,0.2-0.7,0.7-0.7h2.2c0.5,0,0.7,0.2,0.7,0.7l0,3.4L161.6,35.3L161.6,35.3z"/>
	<path id="Path_1123" class="st0" d="M169,33.8c0,0.7-0.3,1.6-2.6,1.6c-2.3,0-2.6-0.9-2.6-1.6v-2c0-0.7,0.3-1.7,2.6-1.7
		s2.6,0.9,2.6,1.7V33.8z M168.3,31.8c0-0.5-0.3-0.9-1.9-0.9s-1.9,0.5-1.9,0.9v2.1c0,0.5,0.3,0.9,1.9,0.9c1.5,0,1.9-0.5,1.9-0.9V31.8
		z M167.3,33.2l0.4,1c0,0.1,0,0.1-0.1,0.1h-0.4c-0.1,0-0.1-0.1-0.1-0.1l-0.4-0.9H166v0.9c0,0.1,0,0.1-0.1,0.1h-0.4
		c-0.1,0-0.1-0.1-0.1-0.1c0,0,0,0,0,0v-2.6c0-0.1,0.1-0.1,0.1-0.1h1.1c0.9,0,1.1,0.5,1.1,0.9v0.2C167.8,32.8,167.6,33.1,167.3,33.2
		 M166,31.9v0.9h0.5c0.3,0,0.5-0.1,0.5-0.3v-0.2c0-0.2-0.2-0.3-0.5-0.3H166z"/>
	<path id="Path_1124" class="st0" d="M98.8,52.8c0.3,0.3,0.2,0.7-0.3,0.7h-3.1c-0.5,0-0.9-0.3-1.1-0.7l-6.7-9.4h-1v9.4
		c0,0.5-0.2,0.7-0.7,0.7h-2.4c-0.5,0-0.7-0.2-0.7-0.7V31.1c0-0.5,0.2-0.7,0.7-0.7h2.4c0.5,0,0.7,0.2,0.7,0.7v9.5h0.9l6.9-9.5
		c0.3-0.4,0.7-0.7,1.2-0.7h2.6c0.5,0,0.6,0.3,0.3,0.7l-7.8,10.7L98.8,52.8z"/>
</g>
</svg>
