<?xml version="1.0" encoding="iso-8859-1"?>
<!-- Uploaded to: SVG Repo, www.svgrepo.com, Generator: SVG Repo Mixer Tools -->
<svg xmlns="http://www.w3.org/2000/svg" width="14.479" height="13.838" viewBox="0 0 14.479 13.838">
    <path fill="#fff" d="M14.479 8.467v5.35h-3.095V8.842c0-1.26-.442-2.1-1.57-2.1A1.69 1.69 0 0 0 8.223 7.87a1.993 1.993 0 0 0-.111.752v5.217H5.018s.044-8.444 0-9.329h3.095v1.326l-.022.022h.022v-.022A3.077 3.077 0 0 1 10.9 4.289c2.032-.023 3.579 1.326 3.579 4.178zM1.746 0A1.605 1.605 0 0 0 0 1.614a1.611 1.611 0 0 0 1.724 1.613h.022a1.619 1.619 0 1 0 0-3.227zM.177 13.838h3.095V4.487H.177v9.351z"></path>
</svg>