<?xml version="1.0" encoding="utf-8"?>
<!-- Generator: Adobe Illustrator 25.3.1, SVG Export Plug-In . SVG Version: 6.00 Build 0)  -->
<svg version="1.1" id="Group_27" xmlns="http://www.w3.org/2000/svg" xmlns:xlink="http://www.w3.org/1999/xlink" x="0px" y="0px"
	 viewBox="0 0 210 84" style="enable-background:new 0 0 210 84;" xml:space="preserve">
<style type="text/css">
	.st0{fill:#000;}
</style>
<g id="Layer_1_1_" transform="translate(0 0)">
	<g id="Group_25" transform="translate(0 0)">
		<path id="Path_233" class="st0" d="M118.5,36.6l-0.2,5.8l3.5-1L118.5,36.6z"/>
		
			<rect id="Rectangle_34" x="135.1" y="36.7" transform="matrix(0.9613 -0.2756 0.2756 0.9613 -5.635 39.5873)" class="st0" width="6" height="6.2"/>
		<path id="Path_234" class="st0" d="M113.6,50.1l-6.4-5.1h-0.1l1.8,6.4L113.6,50.1z"/>
		<path id="Path_235" class="st0" d="M68.5,63l-4-13.8l3.1-0.9l7.2,9.4L76,45.9l3.2-0.9l4,13.8l14.3-4.1c-3.3,0-6.2-2.2-7.1-5.4
			c-0.1-0.1-0.1-0.3-0.1-0.4c-0.7,1.5-1.7,2.9-3.3,3.3c-2.4,0.7-4.9-0.7-5.6-3.1c-0.7-2.4,0.7-4.9,3-5.6c0,0,0,0,0,0
			c1.3-0.4,2.7-0.2,3.8,0.6l-1,1.3c-0.6-0.5-1.5-0.7-2.3-0.5c-1.5,0.4-2.4,2-1.9,3.5c0,0.1,0,0.1,0.1,0.2c0.3,1.5,1.8,2.5,3.4,2.2
			c0.1,0,0.1,0,0.2,0c2-0.4,3.1-4,4-6.2c0.1-0.3,0.3-0.7,0.5-1c0.1-0.1,0.2-0.3,0.3-0.4c0.9-1.5,2.4-2.6,4.2-3.1
			c2.6-0.7,5.4,0,7.3,1.9l-2.3,0.7c-1.2-0.9-2.8-1.2-4.3-0.8c-2.9,1-4.5,4.1-3.5,7c0.9,2.8,3.8,4.4,6.6,3.7c2.2-0.6,3.7-2.6,3.8-4.8
			l-6.4,1.9l-0.5-1.9l8.8-2.5c0.9,3.2-0.4,6.6-3.2,8.4l5.8-1.7l-4-13.8l4.1-1.1c1.3-0.5,2.7-0.5,4,0.1c1.1,0.6,1.9,1.7,2.2,2.9
			c0.8,2.1-0.3,4.5-2.4,5.3c0,0,0,0-0.1,0c-0.1,0-0.2,0.1-0.3,0.1l4.8,3.6l1.3-14.8l1.8-0.5l9.2,12.3l0.8-0.3l-3.4-12l-2.9,0.9
			l-0.5-1.9l7.6-2.2l0.5,1.9l-2.7,0.7l3.4,12l3.3-0.9l-3.9-13.8l2-0.6l1.7,6l5.7-1.6l-1.7-6l2-0.6l3.9,13.8l5.8-1.7v-22
			c0-1.3-1.1-2.5-2.4-2.5H62.9c-1.3,0-2.4,1.1-2.4,2.5l0,0v47.7L68.5,63z"/>
		<path id="Path_236" class="st0" d="M117.7,48.9l8-2.3l-2.7-3.6l-5,1.4L117.7,48.9z"/>
		<path id="Path_237" class="st0" d="M67.2,50.8l3.3,11.7l4.7-1.3L67.2,50.8z"/>
		<path id="Path_238" class="st0" d="M111.6,40.6c-0.3-1.1-1.5-2.3-3.8-1.7l-2.1,0.6l1.5,5.3l1.4-0.4
			C109.4,44.1,112.4,43.2,111.6,40.6z"/>
		<path id="Path_239" class="st0" d="M77.7,47.8l-1.3,13l4.7-1.3L77.7,47.8z"/>
	</g>
</g>
<g id="Layer_4" transform="translate(0 25.601)">
	<g id="Group_26" transform="translate(0 0)">
		<path id="Path_240" class="st0" d="M130.4,26.2c-0.9,0.2-1.5,1.1-1.3,2c0.2,0.9,1.1,1.5,2,1.3c0.9-0.2,1.4-1.1,1.3-2v-0.1
			C132.3,26.6,131.4,26,130.4,26.2C130.5,26.2,130.5,26.2,130.4,26.2z"/>
		<path id="Path_241" class="st0" d="M98.6,33.4l-1.9,0.5l0.7,2.4l1.8-0.5c1.3-0.3,1.2-1.2,1.1-1.6C100.2,33.3,99.5,33.1,98.6,33.4z
			"/>
		<path id="Path_242" class="st0" d="M106.1,33c-0.7,0.2-1.2,0.8-1.1,1.5l2.9-0.8C107.6,33,106.8,32.7,106.1,33z"/>
		<path id="Path_243" class="st0" d="M60.5,40.6v0.2c0,1.3,1.1,2.5,2.4,2.5h84.2c1.3,0,2.4-1.1,2.4-2.4c0,0,0,0,0-0.1V15.1
			L60.5,40.6z M101.8,39.7L99,37.5l-1.5-1.2l1.2,4.2l-2.1,0.7l-2.5-8.6l3.8-1.1c0.9-0.4,1.9-0.4,2.8-0.1c0.8,0.4,1.5,1.1,1.7,2
			c0.5,1.3-0.1,2.7-1.3,3.3l3.1,2.3L101.8,39.7z M107.2,36.6c0.5-0.1,0.8-0.5,1-0.9l1.9-0.5c-0.1,0.7-0.4,1.4-0.8,2
			c-0.4,0.5-1,0.9-1.7,1.1c-1.9,0.6-3.9-0.5-4.5-2.3s0.5-3.9,2.3-4.5c1.9-0.6,3.9,0.5,4.5,2.3c0,0.1,0,0.1,0.1,0.1
			c0.1,0.2,0.1,0.3,0.1,0.5l-4.9,1.4C105.7,36.5,106.5,36.8,107.2,36.6L107.2,36.6z M115.4,35.7l-1-3.5c-0.1-0.5-0.4-1.3-1.4-1.1
			c-1.1,0.3-0.8,1.3-0.7,1.7l1,3.5l-1.9,0.5l-1.9-6.4l1.8-0.5l0.2,0.7l0,0c0.2-0.7,0.7-1.3,1.5-1.4c0.6-0.1,1.2-0.1,1.8,0.1
			c0.7,0.4,1.2,1.1,1.3,1.9l1.1,4L115.4,35.7z M131.9,31.2c-1.1,0.3-2.4,0.1-3.3-0.6c-0.5,1.1-1.5,2-2.7,2.3c-2.4,0.7-5-0.6-5.8-3.1
			v-0.1c-0.1-0.2-0.1-0.4-0.1-0.7l-0.7,0.2l1.4,5l-1.9,0.5l-1.4-5l-0.9,0.3l-0.4-1.5l0.9-0.3l-0.6-2.1l1.9-0.5l0.6,2.1l1.1-0.3
			c0.6-2.5,3.1-4.1,5.7-3.5c0.5,0.1,0.9,0.3,1.3,0.5l-1.1,1.9c-0.6-0.5-1.3-0.7-2.1-0.5c-1.3,0.4-2,1.8-1.6,3.1v0.1
			c0.2,0.6,0.5,1.2,1.1,1.5c0.1,0.1,0.1,0.1,0.2,0.1h0.1c1.2,0.7,2.7,0.3,3.3-0.9c0,0,0,0,0,0c0-0.1,0.1-0.1,0.1-0.1l0,0
			c0.2-0.3,0.2-0.7,0.3-1.1v-0.3c-0.3-2,1-3.8,2.9-4.2c2-0.3,3.8,1,4.2,2.9C134.7,29,133.6,30.7,131.9,31.2L131.9,31.2z M136.7,25.8
			l1,3.5l-1.9,0.5l-1.8-6.4l1.8-0.5l0.2,0.7l0,0c0.1-0.7,0.7-1.2,1.3-1.3l0.5,1.9C136.9,24.5,136.4,24.9,136.7,25.8L136.7,25.8z
			 M143.6,27.9c-0.7,0.3-1.5,0.2-2.1-0.3l0.8,2.7l-1.9,0.5l-2.5-8.6l1.8-0.5l0.2,0.7l0,0c0.3-0.8,1-1.3,1.7-1.5
			c2.3-0.7,3.7,1.1,4.2,2.6C146.3,25.4,145.4,27.3,143.6,27.9C143.6,27.9,143.6,27.9,143.6,27.9L143.6,27.9z"/>
		<path id="Path_244" class="st0" d="M141.8,22.9c-0.9,0.2-1.4,1.1-1.2,2c0,0,0,0,0,0c0.2,0.9,1.1,1.5,2,1.3c0.9-0.2,1.5-1.1,1.3-2
			c0-0.1,0-0.1,0-0.2l0,0C143.6,23.3,142.7,22.7,141.8,22.9C141.8,22.9,141.8,22.9,141.8,22.9z"/>
	</g>
</g>
</svg>
