<svg xmlns="http://www.w3.org/2000/svg" id="Layer_1" data-name="Layer 1" viewBox="0 0 600 246" version="1.1"><defs id="defs922"><linearGradient id="linear-gradient" x1="137.07" y1="174.21" x2="103.59" y2="143.49" gradientUnits="userSpaceOnUse"><stop offset="0" stop-color="#45445b" id="stop909"/><stop offset=".23" stop-color="#3f3e53" id="stop911"/><stop offset=".46" stop-color="#343346" id="stop913"/><stop offset=".64" stop-color="#2c2b41" id="stop915"/><stop offset=".92" stop-color="#171632" id="stop917"/><stop offset="1" stop-color="#0f0f2d" id="stop919"/></linearGradient></defs><path id="Fill-1" transform="translate(-61.57 -65.612) scale(4.28151)" fill="#e7792b" fill-rule="evenodd" stroke="none" stroke-width="1" d="M14.908 53.348l18.788 18.745 18.786-18.745-18.786-18.746-18.788 18.746"/><path id="Fill-2" transform="translate(-61.57 -65.612) scale(4.28151)" fill="#e26129" fill-rule="evenodd" stroke="none" stroke-width="1" d="M33.695 15.855L14.907 34.602l18.788 18.745 18.787-18.745-18.787-18.747"/><path d="M202.269 150.501l10.704-12.797c7.411 6.105 15.173 9.976 24.584 9.976 7.412 0 11.881-2.933 11.881-7.745v-.236c0-4.577-2.821-6.923-16.586-10.442-16.587-4.23-27.29-8.803-27.29-25.116v-.24c0-14.903 11.996-24.76 28.818-24.76 12.001 0 22.23 3.755 30.583 10.443l-9.41 13.62c-7.292-5.053-14.468-8.105-21.408-8.105-6.94 0-10.584 3.168-10.584 7.163v.235c0 5.4 3.528 7.159 17.76 10.794 16.702 4.346 26.113 10.331 26.113 24.649v.24c0 16.308-12.468 25.461-30.228 25.461-12.472 0-25.055-4.341-34.937-13.14" id="Fill-3" fill="#000" fill-rule="evenodd" stroke="none" stroke-width="4.282" fill-opacity="1"/><path d="M275.551 131.367v-.235c0-18.077 14.587-32.745 34.231-32.745 19.524 0 33.995 14.437 33.995 32.51v.235c0 18.076-14.587 32.745-34.23 32.745-19.528 0-33.996-14.437-33.996-32.51m50.582 0v-.235c0-9.274-6.705-17.374-16.586-17.374-10.233 0-16.352 7.865-16.352 17.138v.236c0 9.274 6.705 17.37 16.587 17.37 10.233 0 16.351-7.86 16.351-17.135" id="Fill-4" fill="#000" fill-rule="evenodd" stroke="none" stroke-width="4.282" fill-opacity="1"/><path d="M351.42 131.367v-.235c0-17.957 13.765-32.745 33.049-32.745 11.885 0 19.292 3.99 25.175 10.558l-10.94 11.74c-3.998-4.222-7.997-6.927-14.347-6.927-8.94 0-15.293 7.865-15.293 17.138v.236c0 9.625 6.234 17.37 16 17.37 5.994 0 10.109-2.582 14.467-6.692L410 152.377c-6.118 6.687-13.178 11.5-25.761 11.5-18.938 0-32.818-14.553-32.818-32.51" id="Fill-5" fill="#000" fill-rule="evenodd" stroke="none" stroke-width="4.282" fill-opacity="1"/><path d="M418.935 140.286V99.56h17.884v35.091c0 8.452 3.999 12.798 10.815 12.798 6.829 0 11.175-4.346 11.175-12.798V99.56h17.884v62.908h-17.884v-8.918c-4.115 5.279-9.407 10.091-18.466 10.091-13.522 0-21.408-8.918-21.408-23.355" id="Fill-6" fill="#000" fill-rule="evenodd" stroke="none" stroke-width="4.282" fill-opacity="1"/><path d="M490.45 99.56h17.883v12.678c3.643-8.683 9.526-14.322 20.106-13.847v18.659h-.933c-11.882 0-19.173 7.154-19.173 22.183v23.235h-17.884V99.56" id="Fill-7" fill="#000" fill-rule="evenodd" stroke="none" stroke-width="4.282" fill-opacity="1"/><path d="M532.562 131.367v-.235c0-17.957 12.823-32.745 31.17-32.745 21.056 0 30.698 16.317 30.698 34.154 0 1.408-.116 3.052-.231 4.696h-43.877c1.764 8.097 7.411 12.323 15.405 12.323 6.002 0 10.357-1.88 15.297-6.457l10.233 9.038c-5.883 7.279-14.351 11.736-25.762 11.736-18.937 0-32.933-13.26-32.933-32.51m44.46-5.283c-1.058-7.98-5.768-13.38-13.29-13.38-7.412 0-12.233 5.284-13.641 13.38h26.93" id="Fill-8" fill="#000" fill-rule="evenodd" stroke="none" stroke-width="4.282" fill-opacity="1"/><path id="Fill-9" transform="translate(-61.57 -65.612) scale(4.28151)" fill="#161733" fill-rule="evenodd" stroke="none" stroke-width="1" d="M33.695 53.337h18.787l-9.403-9.362-9.384 9.362"/></svg>