<?xml version="1.0" encoding="utf-8"?>
<!-- Generator: Adobe Illustrator 28.0.0, SVG Export Plug-In . SVG Version: 6.00 Build 0)  -->
<svg version="1.1" id="Layer_1" xmlns="http://www.w3.org/2000/svg" xmlns:xlink="http://www.w3.org/1999/xlink" x="0px" y="0px"
	 viewBox="0 0 255 180" style="enable-background:new 0 0 255 180;" xml:space="preserve">
<style type="text/css">
	.st0{fill-rule:evenodd;clip-rule:evenodd;}
</style>
<g>
	<path id="Fill-3" class="st0" d="M100.2,98.1l3-3.6c2.1,1.7,4.3,2.7,6.9,2.7c2.1,0,3.3-0.8,3.3-2.1V95c0-1.3-0.8-1.9-4.6-3
		c-4.6-1.2-7.6-2.5-7.6-7v-0.1c0-4.2,3.3-6.9,8.1-6.9c3.3,0,6.2,1.1,8.5,3l-2.6,3.8c-2-1.4-4-2.3-6.1-2.3s-3,0.9-3,2v0.1
		c0,1.5,0.9,2,5,3.1c4.6,1.2,7.4,2.8,7.4,6.9v0.1c0,4.5-3.4,7.1-8.4,7.1C106.5,101.8,102.9,100.6,100.2,98.1"/>
	<path id="Fill-4" class="st0" d="M120.7,92.7L120.7,92.7c0-5.1,4-9.3,9.6-9.3s9.5,4,9.5,9.1v0.1c0,5.1-4,9.1-9.6,9.1
		C124.7,101.9,120.7,97.8,120.7,92.7 M134.9,92.7L134.9,92.7c0-2.6-1.9-5-4.6-5c-2.7,0-4.6,2.1-4.6,4.7v0.1c0,2.6,1.9,4.9,4.6,4.9
		C133,97.5,134.9,95.3,134.9,92.7"/>
	<path id="Fill-5" class="st0" d="M142,92.7L142,92.7c0-5.1,3.8-9.3,9.3-9.3c3.3,0,5.5,1.1,7,3l-3.1,3.3c-1.1-1.2-2.3-1.9-4-1.9
		c-2.5,0-4.3,2.1-4.3,4.7v0.1c0,2.7,1.8,4.9,4.5,4.9c1.7,0,2.8-0.7,4-1.9l3,3c-1.7,1.9-3.7,3.2-7.2,3.2
		C145.8,101.9,142,97.8,142,92.7"/>
	<path id="Fill-6" class="st0" d="M160.9,95.2V83.8h5v9.9c0,2.4,1.1,3.6,3.1,3.6c2,0,3.1-1.2,3.1-3.6v-9.9h5v17.6h-5v-2.5
		c-1.2,1.4-2.6,2.8-5.2,2.8C163.1,101.8,160.9,99.3,160.9,95.2"/>
	<path id="Fill-7" class="st0" d="M180.9,83.8h5v3.6c1.1-2.5,2.6-4,5.6-3.9v5.2h-0.2c-3.3,0-5.3,2-5.3,6.2v6.5h-5V83.8"/>
	<path id="Fill-8" class="st0" d="M192.7,92.7L192.7,92.7c0-5.1,3.6-9.3,8.8-9.3c5.9,0,8.5,4.5,8.5,9.6c0,0.4,0,0.8-0.1,1.3h-12.3
		c0.5,2.3,2.1,3.4,4.3,3.4c1.7,0,2.8-0.5,4.3-1.8l2.8,2.5c-1.7,2-4,3.3-7.2,3.3C196.6,101.9,192.7,98.2,192.7,92.7 M205.1,91.3
		c-0.2-2.3-1.7-3.8-3.7-3.8s-3.4,1.4-3.8,3.8H205.1"/>
</g>
<path id="Fill-1" class="st0" d="M45,102.3l21.4,21.2L87,103.1H65.9L55,92.5L45,102.3"/>
<path id="Fill-2" class="st0" d="M66.4,56.4L45,77.7l21.4,21.2l21.4-21.2L66.4,56.4"/>
<path id="Fill-9" class="st0" d="M69.5,100.3H89l-9.9-9.7L69.5,100.3"/>
</svg>
