<?xml version="1.0" encoding="UTF-8"?><svg id="a" xmlns="http://www.w3.org/2000/svg" viewBox="0 0 210 84"><defs><style>.b{fill:#000;}</style></defs><path class="b" d="M50.26,46.61c0,.88-.18,1.77-.6,2.56-.38,.79-.92,1.48-1.62,2-.74,.56-1.57,1.02-2.51,1.3-1.02,.32-2.09,.47-3.16,.47-1.25,0-2.51-.18-3.71-.56-1.21-.42-2.27-1.07-3.25-1.86l1.81-2.92c.7,.6,1.48,1.16,2.36,1.57,.65,.32,1.39,.51,2.13,.51,.79,.05,1.53-.18,2.18-.7,.56-.47,.83-1.16,.83-1.86,0-.32-.05-.65-.14-.92-.14-.32-.32-.65-.56-.88-.32-.38-.7-.7-1.12-1.02-.47-.38-1.07-.83-1.77-1.35-.56-.38-1.12-.79-1.62-1.21s-1.02-.88-1.44-1.35-.79-1.02-1.07-1.57c-.27-.65-.42-1.3-.42-2,0-.83,.18-1.62,.56-2.36,.38-.7,.88-1.35,1.48-1.81,.7-.56,1.44-.97,2.27-1.21,.92-.27,1.91-.42,2.87-.42,1.07,0,2.13,.14,3.16,.42,1.02,.27,1.95,.7,2.83,1.25l-1.62,2.65c-1.02-.74-2.27-1.16-3.53-1.16-.65-.05-1.35,.18-1.86,.6-.47,.32-.74,.88-.74,1.48,0,.56,.23,1.12,.65,1.53,.7,.7,1.44,1.3,2.22,1.91,1.07,.79,1.95,1.48,2.65,2.04,.6,.51,1.16,1.07,1.67,1.67,.38,.47,.65,1.02,.83,1.57,.17,.42,.22,1.02,.22,1.62m18.56-4.92c0,.88-.09,1.77-.23,2.65-.14,.92-.47,1.77-.88,2.6-.38,.79-.92,1.44-1.62,2-.74,.56-1.62,.79-2.51,.79-1.57,.05-3.1-.7-3.99-2.04-.97-1.35-1.44-3.21-1.44-5.52s.51-4.31,1.48-5.75c.88-1.35,2.41-2.18,4.04-2.13,1.53-.05,2.97,.7,3.8,2,.88,1.29,1.35,3.1,1.35,5.42m5.89-.23c0-1.44-.23-2.92-.7-4.27-.42-1.21-1.07-2.36-1.91-3.3s-1.81-1.67-2.92-2.18c-1.21-.51-2.46-.79-3.75-.79-1.39-.05-2.78,.27-4.04,.88-1.25,.65-2.32,1.57-3.21,2.69l-.05-3.06h-5.37v31.45h5.38v-13.31c.47,.56,.97,1.07,1.53,1.57,.47,.42,.97,.74,1.48,1.02,.51,.27,1.02,.47,1.62,.56s1.21,.18,1.81,.18c1.39,0,2.74-.27,3.99-.88,1.21-.56,2.32-1.39,3.21-2.41,.92-1.07,1.62-2.32,2.09-3.62,.55-1.45,.82-3.02,.82-4.55m2.37,10.95h5.52V21.61h-5.52v30.8Zm29.18,0V31.4h-5.52v11.32c0,.79-.05,1.53-.14,2.32-.09,.51-.23,1.02-.42,1.48-.79,1.77-2.22,2.6-4.31,2.6-1.62,0-2.78-.6-3.43-1.77-.27-.47-.42-.97-.51-1.53-.14-.79-.18-1.62-.14-2.41v-12.01h-5.52v13.96c0,.51,.05,1.02,.09,1.48,.05,.42,.14,.83,.18,1.16s.18,.65,.32,.97c.47,1.25,1.35,2.27,2.46,2.92,1.3,.7,2.74,1.02,4.18,.97,1.35,.05,2.69-.23,3.9-.79,1.25-.6,2.36-1.48,3.3-2.56v2.78l5.57,.1Zm23.84,0v-14.01c0-.51-.05-.97-.09-1.48-.05-.38-.14-.74-.23-1.12-.09-.32-.18-.65-.27-.92-.47-1.21-1.35-2.22-2.46-2.92-1.25-.74-2.74-1.07-4.18-1.02-1.35-.05-2.69,.23-3.9,.79-1.25,.6-2.36,1.48-3.3,2.56v-2.83h-5.57v20.97h5.57v-11.32c0-.74,.05-1.53,.09-2.27,.05-.51,.18-1.02,.42-1.53,.32-.79,.92-1.48,1.67-1.91,.83-.47,1.77-.7,2.69-.65,1.62,0,2.78,.6,3.43,1.77,.27,.47,.42,.97,.51,1.53,.09,.79,.14,1.62,.14,2.41v11.97h5.48Zm22.92-1.4l-8.44-10.48,7.14-7.66-4.18-1.81-7.43,8.58h-.6V21.6h-5.57v30.8h5.57v-11.13l8.35,11.6,5.16-1.85Zm21.57-7.52v-3.43l-16.79-8.4v3.75l12.99,6.31-12.99,6.4v3.71l16.79-8.34Zm-15.17-17.31c-1.02,0-1.91,.83-1.91,1.86s.83,1.91,1.86,1.91,1.91-.83,1.91-1.86v-.05c.05-.98-.8-1.86-1.86-1.86t0,0Zm0,.27c.88-.05,1.62,.65,1.67,1.53,.05,.88-.65,1.62-1.53,1.67-.88,.05-1.62-.65-1.67-1.53v-.09c0-.83,.7-1.53,1.53-1.57h0Zm-.33,1.81h.23c.23-.05,.42,.09,.47,.32v.05c0,.18,.05,.38,.14,.51h.38c-.09-.18-.14-.32-.14-.51-.05-.32-.18-.47-.38-.51h0c.23-.05,.42-.27,.42-.51,0-.18-.05-.32-.18-.42-.18-.14-.42-.18-.65-.18-.18,0-.42,0-.6,.05v2.09h.32v-.87Zm0-.97h.23c.38,0,.51,.18,.51,.38,0,.27-.23,.38-.51,.38h-.23v-.75Z"/></svg>