<?xml version="1.0" encoding="utf-8"?>
<!-- Generator: Adobe Illustrator 25.3.1, SVG Export Plug-In . SVG Version: 6.00 Build 0)  -->
<svg version="1.1" id="Layer_1" xmlns="http://www.w3.org/2000/svg" xmlns:xlink="http://www.w3.org/1999/xlink" x="0px" y="0px"
	 viewBox="0 0 210 84" style="enable-background:new 0 0 210 84;" xml:space="preserve">
<style type="text/css">
	.st0{fill:#000;}
</style>
<g id="Layer_2_1_" transform="translate(-12.3 -26.559)">
	<g id="Group_3423" transform="translate(12.3 26.559)">
		<g id="Group_3419" transform="translate(50.332 6.027)">
			<path id="Path_1138" class="st0" d="M49.5,43.3h-1.3L43,28.7h1.8l4.1,12.1c0.5-1.4,4-12.1,4-12.1h1.4l3.9,12.1l4.1-12.1h1.7
				l-5.2,14.6h-1.3l-4-11.7L49.5,43.3z"/>
		</g>
		<g id="Group_3420" transform="translate(76.831 5.998)">
			<path id="Path_1139" class="st0" d="M52.5,36.7h-7.9v5h8.9v1.6H43V28.7h10.5v1.6h-8.9v4.8h7.9V36.7z"/>
		</g>
		<g id="Group_3421" transform="translate(93.088 6.027)">
			<path id="Path_1140" class="st0" d="M47.7,36.1l-3.1,3.1v3.9H43V28.7h1.7v8.6l8.3-8.6h2.1l-6.2,6.4l6.4,8.1h-2L47.7,36.1z"/>
		</g>
		<g id="Group_3422" transform="translate(109.203 5.885)">
			<path id="Path_1141" class="st0" d="M54.3,39.5h-7.9l-1.7,3.8H43l6.6-14.6h1.5l6.7,14.6H56L54.3,39.5z M47.1,38h6.6l-3.3-7.3
				L47.1,38z"/>
		</g>
		<path id="Path_1142" class="st0" d="M71.6,30.4l6.4,6.4c0.4,0.4,1,0.4,1.4,0c0.2-0.2,0.3-0.4,0.3-0.7v-6.4c0-0.5-0.4-1-1-1h-6.4
			c-0.5,0-1,0.4-1,1C71.3,29.9,71.4,30.2,71.6,30.4z"/>
		<path id="Path_1143" class="st0" d="M61.8,38.6L78.1,55c0.4,0.4,0.9,0.4,1.3,0c0.2-0.2,0.3-0.4,0.3-0.7v-5.5
			c0-1.3-0.5-2.5-1.4-3.5L62,29c-0.4-0.4-1-0.4-1.4,0c-0.2,0.2-0.3,0.4-0.3,0.7v5.1C60.3,36.2,60.8,37.6,61.8,38.6z"/>
		<path id="Path_1144" class="st0" d="M44.6,38.6L60.9,55c0.4,0.4,0.9,0.4,1.3,0c0.2-0.2,0.3-0.4,0.3-0.7v-5.5
			c0-1.3-0.5-2.5-1.4-3.5L44.7,29c-0.4-0.4-1-0.4-1.4,0c-0.2,0.2-0.3,0.4-0.3,0.7v5.1C43,36.2,43.6,37.6,44.6,38.6z"/>
	</g>
</g>
</svg>
